<?xml version="1.0" encoding="UTF-8" standalone="no"?>
<!-- Created with Inkscape (http://www.inkscape.org/) -->

<svg
   width="22.551453mm"
   height="43.501617mm"
   viewBox="0 0 22.551452 43.501617"
   version="1.1"
   id="svg5"
   inkscape:version="1.1.1 (3bf5ae0d25, 2021-09-20)"
   sodipodi:docname="Bracelet.svg"
   xmlns:inkscape="http://www.inkscape.org/namespaces/inkscape"
   xmlns:sodipodi="http://sodipodi.sourceforge.net/DTD/sodipodi-0.dtd"
   xmlns="http://www.w3.org/2000/svg"
   xmlns:svg="http://www.w3.org/2000/svg">
  <sodipodi:namedview
     id="namedview7"
     pagecolor="#ffffff"
     bordercolor="#666666"
     borderopacity="1.0"
     inkscape:pageshadow="2"
     inkscape:pageopacity="0.0"
     inkscape:pagecheckerboard="0"
     inkscape:document-units="mm"
     showgrid="false"
     fit-margin-top="0"
     fit-margin-left="0"
     fit-margin-right="0"
     fit-margin-bottom="0"
     inkscape:zoom="1.9827809"
     inkscape:cx="190.89351"
     inkscape:cy="99.859747"
     inkscape:window-width="1920"
     inkscape:window-height="986"
     inkscape:window-x="-11"
     inkscape:window-y="-11"
     inkscape:window-maximized="1"
     inkscape:current-layer="layer1" />
  <defs
     id="defs2">
    <clipPath
       clipPathUnits="userSpaceOnUse"
       id="clipPath724">
      <rect
         style="fill:none;stroke-width:0.264583"
         id="rect726"
         width="28.956596"
         height="44.168816"
         x="77.449409"
         y="77.992462" />
    </clipPath>
  </defs>
  <g
     inkscape:label="Camada 1"
     inkscape:groupmode="layer"
     id="layer1"
     transform="translate(-80.918861,-77.859024)">
    <path
       style="fill:#ffffff;stroke-width:0.239744"
       d="m 78.318987,125.3383 c 0,-0.047 0.18478,-0.1436 0.41062,-0.21475 0.23545,-0.0742 0.34166,-0.0378 0.24896,0.0854 -0.15537,0.20643 -0.65958,0.30532 -0.65958,0.12938 z m 1.32292,-0.56634 c 0,-0.35844 0.046,-0.65171 0.10226,-0.65171 0.0562,0 0.15468,0.29327 0.21876,0.65171 0.0641,0.35845 0.0181,0.65171 -0.10227,0.65171 -0.12031,0 -0.21875,-0.29326 -0.21875,-0.65171 z m 0.97013,0.50689 c -0.097,-0.0797 -0.17638,-0.38922 -0.17638,-0.68792 0,-0.69292 0.34698,-0.43078 0.38547,0.29122 0.0322,0.60409 0.0356,0.59762 -0.20909,0.3967 z m 4.23334,0 c -0.097,-0.0797 -0.17639,-0.38922 -0.17639,-0.68792 0,-0.69292 0.34698,-0.43078 0.38548,0.29122 0.0322,0.60409 0.0356,0.59762 -0.20909,0.3967 z m 0.70621,-0.19564 c -0.22417,-0.47965 0.34131,-0.91391 0.75152,-0.5771 0.21643,0.1777 0.41153,0.18715 0.64064,0.031 0.24969,-0.17014 0.29499,-0.11631 0.18711,0.2224 -0.089,0.27959 -0.0152,0.4469 0.1972,0.4469 0.18675,0 0.26304,0.0628 0.16954,0.13958 -0.0935,0.0768 -0.34086,0.0232 -0.5497,-0.11917 -0.25882,-0.17636 -0.43431,-0.18622 -0.55118,-0.031 -0.25072,0.33308 -0.66245,0.27819 -0.84513,-0.11267 z m 0.74459,-0.20263 c 0,-0.11351 -0.128,-0.2414 -0.28443,-0.28422 -0.15644,-0.0428 -0.28443,0.0851 -0.28443,0.28422 0,0.19913 0.12799,0.32704 0.28443,0.28422 0.15643,-0.0428 0.28443,-0.17071 0.28443,-0.28422 z m 2.07698,0.10862 c -0.15577,-0.23896 -0.22367,-0.43448 -0.15091,-0.43448 0.0728,0 0.25973,0.19552 0.41549,0.43448 0.15576,0.23896 0.22367,0.43447 0.15091,0.43447 -0.0728,0 -0.25973,-0.19551 -0.41549,-0.43447 z m 4.02033,-0.10862 c 0.005,-0.35844 0.0647,-0.47878 0.13177,-0.26741 0.0671,0.21136 0.0627,0.50463 -0.01,0.65171 -0.0725,0.14707 -0.12736,-0.0259 -0.12197,-0.3843 z m 1.2249,0.0378 c -0.0984,-0.39642 -0.0616,-0.53926 0.1041,-0.40323 0.1411,0.11584 0.2097,0.39208 0.15244,0.61387 -0.0771,0.29867 -0.14364,0.24403 -0.25654,-0.21064 z m 2.8907,0.36139 c 0.1819,-0.0603 0.47956,-0.0603 0.66146,0 0.1819,0.0603 0.0331,0.10957 -0.33073,0.10957 -0.3638,0 -0.51263,-0.0493 -0.33073,-0.10957 z m 1.24014,-0.0955 c -0.13161,-0.17485 -0.0857,-0.2056 0.13763,-0.0923 0.19421,0.0986 0.44229,0.0442 0.59019,-0.12936 0.2132,-0.25017 0.23824,-0.24804 0.15232,0.0129 -0.13728,0.41692 -0.63464,0.53486 -0.88014,0.20871 z m 4.051533,0.0955 c 0.1819,-0.0603 0.47956,-0.0603 0.66146,0 0.1819,0.0603 0.0331,0.10957 -0.33073,0.10957 -0.3638,0 -0.51263,-0.0493 -0.33073,-0.10957 z m 1.33946,-0.005 c 0.19099,-0.0627 0.41919,-0.055 0.50712,0.0172 0.0879,0.0722 -0.0684,0.12352 -0.34727,0.11409 -0.30823,-0.0104 -0.37092,-0.0619 -0.15985,-0.13125 z m 1.2421,-0.0663 c -0.0903,-0.11992 0.008,-0.16134 0.22221,-0.0938 0.21112,0.0665 0.46245,0.0165 0.55852,-0.11111 0.0961,-0.12763 0.30946,-0.23205 0.47421,-0.23205 0.16475,0 0.0684,0.14353 -0.21405,0.31895 -0.61258,0.38042 -0.82522,0.40453 -1.04089,0.11801 z m 1.71792,-0.24006 c 0,-0.1083 0.23813,-0.19691 0.52917,-0.19691 0.29104,0 0.52917,0.0374 0.52917,0.0833 0,0.0458 -0.23813,0.13441 -0.52917,0.1969 -0.29104,0.0625 -0.52917,0.025 -0.52917,-0.0833 z m -14.287503,-0.18394 c 0,-0.17382 -0.17214,-0.22288 -0.46302,-0.13196 -0.37125,0.11605 -0.39747,0.0905 -0.13229,-0.12882 0.25464,-0.21063 0.40275,-0.21442 0.64381,-0.0165 0.17221,0.14138 0.23174,0.32386 0.1323,0.40551 -0.0994,0.0816 -0.1808,0.024 -0.1808,-0.12824 z m 15.610423,-0.0258 c 0,-0.12653 0.11906,-0.16964 0.26458,-0.0958 0.14552,0.0738 0.26459,0.17737 0.26459,0.23006 0,0.0527 -0.11907,0.0958 -0.26459,0.0958 -0.14552,0 -0.26458,-0.10352 -0.26458,-0.23006 z m -3.10419,-0.29503 c 0.0338,-0.22906 0.24007,-0.45646 0.45836,-0.50532 0.25526,-0.0571 0.29302,-0.0248 0.10581,0.0906 -0.16008,0.0987 -0.36634,0.32609 -0.45835,0.50531 -0.11755,0.22896 -0.14902,0.20202 -0.10582,-0.0906 z m -4.03956,-0.10524 c 0,-0.22559 0.50329,-0.55215 0.65237,-0.4233 0.0484,0.0419 -0.0786,0.20211 -0.28218,0.35617 -0.20361,0.15406 -0.37019,0.18427 -0.37019,0.0672 z m -2.377473,-0.32862 c 0.17135,-0.14069 0.35026,-0.14069 0.5216,0 0.17135,0.14069 0.0819,0.21414 -0.2608,0.21414 -0.3427,0 -0.43215,-0.0735 -0.2608,-0.21414 z m 3.968753,0 c 0.17135,-0.14069 0.35026,-0.14069 0.52161,0 0.17134,0.14069 0.0819,0.21414 -0.26081,0.21414 -0.3427,0 -0.43215,-0.0735 -0.2608,-0.21414 z m -14.714573,-4.60755 c -2.90005,-0.56504 -2.75171,-0.13939 -2.75171,-7.89606 0,-6.58277 -0.0104,-6.71398 -0.54433,-6.85311 -0.29938,-0.078 -0.63848,-0.35344 -0.75357,-0.61205 -0.31591,-0.70986 -0.32463,-9.025914 -0.01,-9.508642 0.14748,-0.226267 0.50209,-0.411393 0.78801,-0.411393 0.45374,0 0.51986,-0.151957 0.51986,-1.194808 0,-0.657143 -0.11056,-1.194807 -0.24569,-1.194807 -0.67705,0 -1.07723,-0.733808 -1.07723,-1.975313 0,-1.167925 0.0638,-1.316427 0.66146,-1.540016 0.58534,-0.218974 0.66146,-0.380933 0.66146,-1.407387 0,-0.637967 -0.11056,-1.159938 -0.24569,-1.159938 -0.67705,0 -1.07723,-0.733809 -1.07723,-1.975313 0,-1.167925 0.0638,-1.316427 0.66146,-1.540016 0.51705,-0.193429 0.66146,-0.408946 0.66146,-0.987194 0,-0.406859 0.11559,-0.917075 0.25686,-1.133814 0.87737,-1.346011 8.90413,-1.922671 13.23689,-0.950964 1.953944,0.43821 2.381253,0.788194 2.381253,1.950361 0,0.673221 0.10839,0.9439 0.37798,0.9439 0.77005,0 1.2096,0.659153 1.20547,1.807728 -0.005,1.255181 -0.1286,1.488784 -0.98814,1.860434 -0.49532,0.21417 -0.59531,0.438549 -0.59531,1.335947 0,0.789914 0.10115,1.078546 0.37798,1.078546 0.75953,0 1.20952,0.660325 1.20952,1.774878 0,0.933369 -0.11539,1.180633 -0.79375,1.700924 -0.65939,0.505739 -0.79375,0.777899 -0.79375,1.607822 0,0.817204 0.0867,0.99903 0.47625,0.99903 1.03619,0 1.11139,0.353394 1.1072,5.202841 -0.002,2.574804 -0.0915,4.790494 -0.19844,4.923744 -0.10691,0.13324 -0.46228,0.3109 -0.7897,0.39481 l -0.59531,0.15253 v 6.71973 c 0,7.80631 0.17554,7.32344 -2.869053,7.892 -2.35626,0.44002 -7.98564,0.43761 -10.25424,-0.004 z m 10.21287,-0.32345 c 0.65485,-0.11922 1.458523,-0.36024 1.785944,-0.53561 l 0.59531,-0.31883 v -6.72935 -6.72937 h -0.66146 c -0.504594,0 -0.665434,0.11591 -0.678234,0.48879 l -0.0168,0.48878 -0.23929,-0.48878 c -0.23751,-0.48517 -0.28046,-0.48879 -5.80406,-0.48879 -4.77008,0 -5.56477,0.0465 -5.56477,0.32586 0,0.17922 -0.11907,0.32586 -0.26459,0.32586 -0.14552,0 -0.26458,-0.14664 -0.26458,-0.32586 0,-0.20325 -0.2503,-0.32586 -0.66523,-0.32586 h -0.66523 l 0.0699,6.78869 0.0699,6.78867 0.95351,0.38289 c 1.88425,0.75663 8.075,0.94912 11.34962,0.35291 z m -11.1125,-1.17027 c 0,-0.2987 0.11906,-0.5431 0.26458,-0.5431 0.14552,0 0.26459,0.2444 0.26459,0.5431 0,0.2987 -0.11907,0.54309 -0.26459,0.54309 -0.14552,0 -0.26458,-0.24439 -0.26458,-0.54309 z m 11.82675,0.25185 c -0.0749,-0.16019 -0.0299,-0.42902 0.0999,-0.59741 0.17179,-0.22281 0.23716,-0.14353 0.24011,0.29124 0.004,0.64873 -0.12534,0.76554 -0.34004,0.30617 z m -6.75667,-1.85472 c -0.19463,-0.10129 -0.3137,-0.4175 -0.26458,-0.7027 0.0802,-0.46587 0.2207,-0.51852 1.38337,-0.51852 1.4765,0 2.11977,0.45725 1.50245,1.06798 -0.37269,0.36871 -2.02195,0.46513 -2.62124,0.15324 z m 2.33825,-0.56951 c 0,-0.23452 -0.29224,-0.32586 -1.04272,-0.32586 -1.00485,0 -1.50762,0.22323 -1.15495,0.5128 0.0931,0.0764 0.62561,0.13892 1.18344,0.13892 0.72515,0 1.01423,-0.0929 1.01423,-0.32586 z m -7.40833,0 c 0,-0.29871 0.11906,-0.54309 0.26458,-0.54309 0.14552,0 0.26459,0.24438 0.26459,0.54309 0,0.2987 -0.11907,0.54309 -0.26459,0.54309 -0.14552,0 -0.26458,-0.24439 -0.26458,-0.54309 z m 11.95783,0 c 0.005,-0.35845 0.0647,-0.47878 0.13178,-0.26741 0.0671,0.21136 0.0627,0.50463 -0.01,0.65171 -0.0725,0.14707 -0.12736,-0.0259 -0.12197,-0.3843 z m -11.95783,-2.17238 c 0,-0.2987 0.11906,-0.54309 0.26458,-0.54309 0.14552,0 0.26459,0.24439 0.26459,0.54309 0,0.29871 -0.11907,0.5431 -0.26459,0.5431 -0.14552,0 -0.26458,-0.24439 -0.26458,-0.5431 z m 11.82268,0.38017 c -0.0631,-0.0896 -0.019,-0.35844 0.0981,-0.5974 0.18585,-0.3793 0.21525,-0.35861 0.23148,0.16293 0.0183,0.58936 -0.10544,0.75255 -0.32956,0.43447 z m -6.88379,-0.85075 c -0.40319,-0.33104 -0.13823,-0.96402 0.48495,-1.15856 0.70526,-0.22016 2.16516,-0.07 2.40395,0.2472 0.0791,0.10512 0.0686,0.38576 -0.0233,0.62366 -0.13614,0.35217 -0.40146,0.43253 -1.42819,0.43253 -0.69354,0 -1.34036,-0.0652 -1.43737,-0.14483 z m 2.41931,-0.5612 c 0.0728,-0.31105 -0.10415,-0.38016 -0.97319,-0.38016 -1.16133,0 -1.61678,0.29394 -0.93839,0.60566 0.71112,0.32675 1.8128,0.1968 1.91158,-0.2255 z m -7.3582,-1.14049 c 0,-0.2987 0.11906,-0.5431 0.26458,-0.5431 0.14552,0 0.26459,0.2444 0.26459,0.5431 0,0.2987 -0.11907,0.54309 -0.26459,0.54309 -0.14552,0 -0.26458,-0.24439 -0.26458,-0.54309 z m 11.76869,0.11304 c 0.0602,-0.67084 0.40215,-0.79775 0.40215,-0.14925 0,0.31862 -0.0992,0.5793 -0.22037,0.5793 -0.1212,0 -0.203,-0.19352 -0.18178,-0.43005 z m -6.73106,-1.62327 c -0.17535,-0.17348 -0.2776,-0.49119 -0.22721,-0.70603 0.0749,-0.31922 0.35619,-0.3906 1.53958,-0.3906 1.18339,0 1.4647,0.0713 1.53958,0.3906 0.14507,0.61852 -0.46223,1.02145 -1.53958,1.02145 -0.54645,0 -1.13701,-0.14194 -1.31237,-0.31542 z m 2.3707,-0.44491 c 0,-0.23535 -0.29398,-0.32586 -1.05833,-0.32586 -0.76435,0 -1.05833,0.0905 -1.05833,0.32586 0,0.23534 0.29398,0.32586 1.05833,0.32586 0.76435,0 1.05833,-0.0905 1.05833,-0.32586 z m -7.40833,-0.21724 c 0,-0.29871 0.11906,-0.5431 0.26458,-0.5431 0.14552,0 0.26459,0.24439 0.26459,0.5431 0,0.2987 -0.11907,0.5431 -0.26459,0.5431 -0.14552,0 -0.26458,-0.2444 -0.26458,-0.5431 z m 11.82966,0.10883 c -0.0761,-0.23885 -0.0304,-0.489 0.10143,-0.55591 0.13186,-0.0669 0.23975,0.1285 0.23975,0.43425 0,0.66564 -0.1508,0.71941 -0.34118,0.12166 z m -11.82966,-2.28121 c 0,-0.2987 0.11906,-0.54309 0.26458,-0.54309 0.14552,0 0.26459,0.24439 0.26459,0.54309 0,0.2987 -0.11907,0.54309 -0.26459,0.54309 -0.14552,0 -0.26458,-0.24439 -0.26458,-0.54309 z m 11.82675,0.25185 c -0.0749,-0.16019 -0.0299,-0.42902 0.0999,-0.5974 0.17179,-0.22282 0.23716,-0.14354 0.24011,0.29124 0.004,0.64872 -0.12534,0.76553 -0.34004,0.30616 z m -6.88786,-0.5053 c -0.097,-0.0796 -0.17639,-0.37106 -0.17639,-0.64756 0,-0.3483 0.1934,-0.54262 0.62949,-0.63248 1.5361,-0.31655 2.84571,0.25197 2.46363,1.06948 -0.12228,0.26163 -0.50565,0.35539 -1.45322,0.35539 -0.70792,0 -1.3665,-0.0652 -1.46351,-0.14483 z m 2.46944,-0.6155 c 0,-0.23534 -0.29398,-0.32585 -1.05833,-0.32585 -0.76435,0 -1.05833,0.0905 -1.05833,0.32585 0,0.23534 0.29398,0.32586 1.05833,0.32586 0.76435,0 1.05833,-0.0905 1.05833,-0.32586 z m 7.612073,-6.718867 c 0.0536,-3.572115 -0.009,-4.804771 -0.25195,-4.927823 -0.17786,-0.09026 -0.41837,-0.115902 -0.53446,-0.057 -0.11609,0.05891 -0.21107,1.414072 -0.21107,3.011476 0,2.350688 -0.0793,2.969454 -0.415769,3.245744 -0.32693,0.26842 -1.029751,0.34137 -3.288904,0.34137 -2.73642,0 -2.87714,0.0222 -2.95766,0.4666 -0.19282,1.06414 -1.82836,1.06414 -2.02118,0 -0.0807,-0.44551 -0.21894,-0.4666 -3.05829,-0.4666 -4.0956,0 -3.98125,0.0954 -4.07797,-3.403524 -0.0891,-3.222347 -0.15281,-3.497839 -0.71982,-3.111469 -0.32494,0.221417 -0.39375,1.038793 -0.39375,4.677309 0,2.424954 0.0729,4.564944 0.16196,4.755534 0.14449,0.30917 1.10691,0.34035 8.92968,0.28932 l 8.767743,-0.0572 z m -8.141233,0.853447 c 0,-1.484459 -0.047,-1.629284 -0.52917,-1.629284 -0.48213,0 -0.52917,0.144825 -0.52917,1.629284 0,1.48445 0.047,1.62928 0.52917,1.62928 0.48213,0 0.52917,-0.14483 0.52917,-1.62928 z m -1.5875,-0.21724 c 0,-0.298702 -0.12698,-0.543094 -0.28216,-0.543094 -0.15519,0 -0.24448,-0.268832 -0.19844,-0.597403 0.0779,-0.555768 0.179,-0.601938 1.45081,-0.662441 1.20248,-0.0572 1.38882,-0.0088 1.54763,0.402033 0.0993,0.25689 0.0497,0.574539 -0.11031,0.705888 -0.15998,0.131351 -0.29087,0.466861 -0.29087,0.745577 0,0.50447 0.0135,0.50648 2.97656,0.44534 l 2.976574,-0.0614 V 95.444505 90.33942 L 99.022641,90.27 c -0.464994,-0.05422 -0.601094,0.0409 -0.621694,0.434474 -0.026,0.495881 -0.0293,0.495258 -0.21036,-0.0392 l -0.184,-0.543095 h -5.54432 -5.54432 l -0.0846,0.488786 c -0.10615,0.613652 -0.57691,0.645639 -0.57691,0.0392 0,-0.341979 -0.14249,-0.432969 -0.59532,-0.380165 -0.59401,0.06926 -0.59546,0.07972 -0.66664,4.800669 -0.0455,3.01568 0.0299,4.886498 0.20775,5.159391 0.25279,0.38782 0.56482,0.42815 3.31247,0.42815 h 3.0334 z m -5.29167,-0.964748 c 0,-0.365494 0.11906,-0.664535 0.26458,-0.664535 0.14552,0 0.26459,0.238623 0.26459,0.530273 0,0.291651 -0.11907,0.590691 -0.26459,0.664535 -0.15436,0.07833 -0.26458,-0.142569 -0.26458,-0.530273 z m 11.96764,-0.01282 c 0,-0.418182 0.0545,-0.589257 0.121,-0.380166 0.0665,0.209092 0.0665,0.551241 0,0.760332 -0.0666,0.209091 -0.121,0.03802 -0.121,-0.380166 z m -11.96764,-2.159188 c 0,-0.365493 0.11906,-0.664533 0.26458,-0.664533 0.14552,0 0.26459,0.238622 0.26459,0.530273 0,0.29165 -0.11907,0.59069 -0.26459,0.664533 -0.15436,0.07833 -0.26458,-0.142569 -0.26458,-0.530273 z m 11.96764,-0.01282 c 0,-0.418183 0.0545,-0.589257 0.121,-0.380166 0.0665,0.209091 0.0665,0.55124 0,0.760332 -0.0666,0.209091 -0.121,0.03802 -0.121,-0.380166 z m -7.12326,-0.78986 c -0.27917,-0.597327 0.29804,-1.052288 1.42315,-1.121725 1.20444,-0.07433 1.81217,0.332556 1.54171,1.032209 -0.1429,0.369661 -0.3941,0.4449 -1.48537,0.4449 -0.97189,0 -1.35658,-0.09241 -1.47949,-0.355384 z m 2.56395,-0.404947 c 0,-0.235341 -0.29398,-0.325857 -1.05833,-0.325857 -0.76435,0 -1.05833,0.09052 -1.05833,0.325857 0,0.235341 0.29398,0.325856 1.05833,0.325856 0.76435,0 1.05833,-0.09052 1.05833,-0.325856 z m -7.40833,-0.99039 c 0,-0.387705 0.11022,-0.608605 0.26458,-0.530274 0.14552,0.07385 0.26459,0.372883 0.26459,0.664533 0,0.291651 -0.11907,0.530274 -0.26459,0.530274 -0.14552,0 -0.26458,-0.299041 -0.26458,-0.664533 z m 11.96764,0.01282 c 0,-0.418182 0.0545,-0.589258 0.121,-0.380166 0.0665,0.209091 0.0665,0.551241 0,0.760332 -0.0666,0.209091 -0.121,0.03802 -0.121,-0.380166 z m -11.96764,-2.159556 c 0,-0.365493 0.11906,-0.664534 0.26458,-0.664534 0.14552,0 0.26459,0.238624 0.26459,0.530274 0,0.29165 -0.11907,0.59069 -0.26459,0.664534 -0.15436,0.07833 -0.26458,-0.14257 -0.26458,-0.530274 z m 4.86352,0.324473 c -0.34818,-0.74498 0.0939,-1.014891 1.54967,-0.946134 1.28708,0.06079 1.39202,0.106689 1.39202,0.60884 0,0.502152 -0.10494,0.548051 -1.39202,0.608841 -1.06608,0.05035 -1.42894,-0.01324 -1.54967,-0.271547 z m 2.41252,-0.337294 c 0,-0.410979 -1.34698,-0.561422 -1.86517,-0.20832 -0.58377,0.397793 -0.17152,0.673561 0.89756,0.600397 0.64786,-0.04434 0.96761,-0.173899 0.96761,-0.392077 z m 4.6916,0 c 0,-0.418182 0.0545,-0.589257 0.121,-0.380165 0.0665,0.209091 0.0665,0.55124 0,0.760331 -0.0666,0.209092 -0.121,0.03801 -0.121,-0.380166 z m 2.849033,-1.629282 c 0,-0.153654 -0.17859,-0.335641 -0.39688,-0.404415 -0.28587,-0.09007 -0.39687,0.02304 -0.39687,0.404415 0,0.381379 0.111,0.494486 0.39687,0.404416 0.21829,-0.06877 0.39688,-0.250762 0.39688,-0.404416 z M 84.404407,90.889697 c 0,-0.290889 -0.12693,-0.387668 -0.39688,-0.302614 -0.42447,0.133736 -0.50623,0.350834 -0.22049,0.585447 0.33372,0.273997 0.61737,0.144049 0.61737,-0.282833 z m 16.933333,-1.321329 c 0,-0.803412 -0.0821,-0.908199 -0.94288,-1.2035 -2.258863,-0.774922 -12.769813,-0.8037 -15.608383,-0.04274 -0.95118,0.254993 -1.05099,0.35443 -1.12777,1.123613 -0.0789,0.79073 -0.0456,0.834903 0.52916,0.701565 1.82228,-0.422728 5.55259,-0.611064 10.00612,-0.505188 4.33654,0.103095 5.699864,0.253527 7.077613,0.780958 0.0364,0.01393 0.0661,-0.370694 0.0661,-0.854713 z m -8.863543,-2.052673 c 2.91041,0 5.74286,0.0678 6.29431,0.150664 l 1.002654,0.150665 -0.0766,-1.779947 c -0.0714,-1.658252 -0.11731,-1.784692 -0.67192,-1.849364 -0.464084,-0.05412 -0.602084,0.04166 -0.626014,0.434474 -0.0272,0.446005 -0.0459,0.453979 -0.16289,0.06942 -0.0727,-0.238962 -0.26727,-0.506296 -0.43233,-0.594078 -0.3591,-0.190963 -9.56806,-0.216886 -10.42044,-0.02934 -0.35016,0.07705 -0.59531,0.299473 -0.59531,0.540127 0,0.225026 -0.11907,0.409139 -0.26459,0.409139 -0.14552,0 -0.26458,-0.195514 -0.26458,-0.434475 0,-0.454307 -0.20511,-0.522938 -0.9044,-0.302615 -0.33279,0.104852 -0.41852,0.483601 -0.41852,1.849088 v 1.717226 l 1.12448,-0.165495 c 0.61846,-0.09102 3.50573,-0.165496 6.41615,-0.165496 z m -6.21771,-0.977569 c 0,-0.396251 0.1098,-0.621636 0.26458,-0.543094 0.14552,0.07385 0.26459,0.318235 0.26459,0.543094 0,0.224858 -0.11907,0.469251 -0.26459,0.543095 -0.15478,0.07854 -0.26458,-0.146844 -0.26458,-0.543095 z m 11.96764,0 c 0,-0.418183 0.0545,-0.589257 0.121,-0.380166 0.0665,0.209092 0.0665,0.551241 0,0.760332 -0.0666,0.209092 -0.121,0.03802 -0.121,-0.380166 z m 2.849033,-1.629283 c 0,-0.153654 -0.17859,-0.335641 -0.39688,-0.404415 -0.28587,-0.09007 -0.39687,0.02304 -0.39687,0.404415 0,0.38138 0.111,0.494487 0.39687,0.404416 0.21829,-0.06877 0.39688,-0.250761 0.39688,-0.404416 z M 84.404407,84.773625 c 0,-0.383698 -0.0661,-0.416024 -0.39397,-0.192623 -0.39819,0.271337 -0.31338,0.653698 0.145,0.653698 0.13693,0 0.24897,-0.207483 0.24897,-0.461075 z m 16.933333,-1.287911 c 0,-0.799145 -0.0845,-0.909016 -0.91906,-1.195329 -2.410233,-0.826849 -12.740373,-0.847005 -15.617403,-0.03047 -0.95554,0.271194 -1.0665,0.38014 -1.14243,1.121733 -0.0809,0.789864 -0.0574,0.815856 0.61297,0.67772 1.55905,-0.321277 4.67121,-0.549528 7.57903,-0.555859 3.43993,-0.0075 8.309513,0.346864 8.941813,0.650684 0.22703,0.109091 0.44256,0.201319 0.47894,0.204953 0.0364,0.0036 0.0661,-0.38941 0.0661,-0.87343 z m -8.863543,-2.052673 c 2.61937,0 5.32805,0.07145 6.01927,0.158773 l 1.256774,0.158772 v -0.87588 c 0,-0.803969 -0.08,-0.903327 -0.974534,-1.2102 -2.53743,-0.870488 -10.6195,-0.849598 -12.88559,0.03331 -0.85917,0.334747 -0.95655,0.459395 -0.95655,1.224369 v 0.851681 l 1.38906,-0.170411 c 0.76399,-0.09373 3.53219,-0.170411 6.15157,-0.170411 z m -6.21771,-0.86895 c 0,-0.298702 0.11906,-0.543094 0.26458,-0.543094 0.14552,0 0.26459,0.244392 0.26459,0.543094 0,0.298702 -0.11907,0.543094 -0.26459,0.543094 -0.14552,0 -0.26458,-0.244392 -0.26458,-0.543094 z m 11.96764,-0.108619 c 0,-0.418183 0.0545,-0.589257 0.121,-0.380166 0.0665,0.209091 0.0665,0.551241 0,0.760332 -0.0666,0.209091 -0.121,0.03802 -0.121,-0.380166 z"
       id="path39"
       clip-path="url(#clipPath724)" />
    <rect
       style="fill:#ffffff;stroke-width:0.264583"
       id="rect81"
       width="41.099682"
       height="1.7347268"
       x="135.09572"
       y="119.62592" />
    <rect
       style="fill:#ffffff;stroke-width:0.264583"
       id="rect83"
       width="0.62417519"
       height="4.9102192"
       x="155.82202"
       y="121.52116" />
    <rect
       style="fill:#ffffff;stroke-width:0.264583"
       id="rect85"
       width="39.364952"
       height="7.8729911"
       x="137.89796"
       y="118.95871" />
    <rect
       style="fill:none;stroke-width:0.264583"
       id="rect293"
       width="27.355309"
       height="41.366562"
       x="80.651985"
       y="71.720757" />
    <rect
       style="fill:none;stroke-width:0.264583"
       id="rect295"
       width="0.13344052"
       height="1.6012863"
       x="104.93816"
       y="67.584106" />
    <rect
       style="fill:none;stroke-width:0.264583"
       id="rect297"
       width="24.819935"
       height="42.434082"
       x="83.187355"
       y="70.653236" />
    <rect
       style="fill:none;stroke-width:0.264583"
       id="rect299"
       width="2.6688104"
       height="1.0675242"
       x="100.8015"
       y="113.22076" />
    <rect
       style="fill:none;stroke-width:0.264583"
       id="rect301"
       width="22.818321"
       height="41.500008"
       x="80.651985"
       y="71.720757" />
    <rect
       style="fill:none;stroke-width:0.264583"
       id="rect405"
       width="27.355307"
       height="41.366558"
       x="80.651985"
       y="71.720757"
       ry="0" />
    <rect
       style="fill:none;stroke-width:0.264583"
       id="rect410"
       width="27.355307"
       height="42.567528"
       x="80.651985"
       y="70.653236" />
    <rect
       style="fill:none;stroke-width:0.264583"
       id="rect538"
       width="23.885855"
       height="42.96785"
       x="81.452629"
       y="74.52301" />
    <rect
       style="fill:none;stroke-width:0.264583"
       id="rect750"
       width="31.625406"
       height="42.033775"
       x="77.449409"
       y="77.992462" />
    <rect
       style="fill:none;stroke-width:0.264583"
       id="rect774"
       width="22.551453"
       height="43.501617"
       x="80.918861"
       y="77.859024" />
  </g>
</svg>
