<?xml version="1.0" encoding="UTF-8" standalone="no"?>
<!-- Created with Inkscape (http://www.inkscape.org/) -->

<svg
   width="37.236542mm"
   height="47.644958mm"
   viewBox="0 0 37.236542 47.644958"
   version="1.1"
   id="svg5"
   inkscape:version="1.1.1 (3bf5ae0d25, 2021-09-20)"
   sodipodi:docname="Case.svg"
   xmlns:inkscape="http://www.inkscape.org/namespaces/inkscape"
   xmlns:sodipodi="http://sodipodi.sourceforge.net/DTD/sodipodi-0.dtd"
   xmlns="http://www.w3.org/2000/svg"
   xmlns:svg="http://www.w3.org/2000/svg">
  <sodipodi:namedview
     id="namedview7"
     pagecolor="#ffffff"
     bordercolor="#666666"
     borderopacity="1.0"
     inkscape:pageshadow="2"
     inkscape:pageopacity="0.0"
     inkscape:pagecheckerboard="0"
     inkscape:document-units="mm"
     showgrid="false"
     fit-margin-top="0"
     fit-margin-left="0"
     fit-margin-right="0"
     fit-margin-bottom="0"
     inkscape:zoom="2.9810404"
     inkscape:cx="87.385598"
     inkscape:cy="80.508805"
     inkscape:window-width="1920"
     inkscape:window-height="986"
     inkscape:window-x="-11"
     inkscape:window-y="-11"
     inkscape:window-maximized="1"
     inkscape:current-layer="layer1" />
  <defs
     id="defs2" />
  <g
     inkscape:label="Camada 1"
     inkscape:groupmode="layer"
     id="layer1"
     transform="translate(-161.23464,-124.43015)">
    <path
       style="fill:#ffffff;stroke-width:0.201668"
       d="m 172.33345,171.42763 c -2.20857,-0.83078 -3.55405,-1.62319 -4.00946,-2.36136 -0.23562,-0.3819 -0.54969,-1.91702 -0.90053,-4.40164 l -0.53873,-3.81521 -0.87998,-0.89367 c -4.62622,-4.69815 -6.06768,-12.14687 -3.52749,-18.22828 0.76876,-1.84049 1.92364,-3.65256 3.24455,-5.09089 1.27005,-1.38295 1.18336,-1.11634 1.81136,-5.57074 0.42648,-3.02506 0.50812,-3.32674 1.07702,-3.9801 0.33857,-0.38883 1.06659,-0.9233 1.61784,-1.18774 0.86924,-0.41698 3.62656,-1.46785 3.85139,-1.46785 0.0434,0 0.079,1.55115 0.079,3.44699 0,3.27111 0.0197,3.44107 0.3855,3.33115 2.98604,-0.89717 7.64301,-0.89717 10.62906,0 0.36583,0.10992 0.3855,-0.06 0.3855,-3.33115 0,-1.89584 0.0497,-3.44699 0.11032,-3.44699 0.32214,0 3.62273,1.30228 4.25961,1.68067 1.39005,0.82587 1.77772,1.46181 2.04887,3.36101 0.86408,6.05193 0.93484,6.30583 1.9879,7.13317 0.53253,0.41838 1.88092,2.37622 2.69801,3.91748 1.81615,3.42572 2.31413,8.13999 1.26548,11.98011 -0.76522,2.80219 -2.28237,5.48749 -4.20489,7.44247 l -0.8683,0.88297 -0.53962,3.78729 c -0.2968,2.08301 -0.67956,4.04345 -0.85058,4.35653 -0.42935,0.78598 -1.73548,1.58384 -3.9377,2.40539 l -1.86547,0.69592 -0.0566,-3.53252 c -0.0504,-3.14667 -0.0928,-3.51934 -0.38873,-3.41187 -0.78126,0.2838 -3.97561,0.70273 -5.35836,0.70273 -1.38275,0 -4.57709,-0.41893 -5.35835,-0.70273 -0.29588,-0.10747 -0.33834,0.26528 -0.38873,3.41284 l -0.0566,3.5335 z m -0.2478,-4.70917 v -2.44869 l -0.88092,-0.42205 c -0.4845,-0.23212 -1.14785,-0.60015 -1.47411,-0.81784 l -0.5932,-0.39581 0.11842,0.56859 c 0.0651,0.31273 0.22761,1.45156 0.36107,2.53074 0.13346,1.07917 0.32667,2.11596 0.42936,2.30394 0.16833,0.30814 1.49832,1.09964 1.88392,1.12114 0.0855,0.004 0.15546,-1.09323 0.15546,-2.44002 z m 16.84218,1.9527 c 0.4241,-0.2728 0.81741,-0.69222 0.87403,-0.93202 0.0877,-0.37148 0.73115,-4.71945 0.73115,-4.94068 0,-0.042 -0.65292,0.28152 -1.45092,0.71888 l -1.45092,0.7952 v 2.42731 c 0,2.7082 0.0268,2.74814 1.29666,1.93131 z m -6.81916,-5.20029 c 3.61075,-0.49412 6.58492,-1.93712 9.25343,-4.48954 2.47786,-2.37006 3.795,-4.63822 4.49054,-7.73289 0.44337,-1.97262 0.2755,-5.63151 -0.34368,-7.49112 -1.54049,-4.62668 -5.25807,-8.36958 -9.98089,-10.04891 -3.60642,-1.28234 -7.4802,-1.31277 -11.1379,-0.0874 -2.45016,0.82078 -3.84799,1.69024 -6.04405,3.75939 -2.18095,2.05492 -3.26763,3.74254 -4.16941,6.47509 -0.42196,1.27864 -0.48408,1.85758 -0.47375,4.41484 0.0107,2.65669 0.0661,3.09604 0.5689,4.51295 0.89794,2.53051 2.06332,4.30873 4.06201,6.19811 2.02023,1.90974 3.91103,3.05163 6.30192,3.80588 2.63633,0.83166 4.88694,1.03757 7.47288,0.68367 z m -5.07823,-1.4542 c -5.37572,-1.06661 -9.64845,-4.64366 -11.31563,-9.47322 -0.71887,-2.08248 -0.88696,-5.52873 -0.36915,-7.5682 2.21918,-8.74027 12.2847,-13.39016 20.73096,-9.57691 5.44706,2.45921 8.60185,7.14409 8.60185,12.77382 0,6.41517 -4.47774,11.96479 -11.01718,13.65445 -1.62709,0.42041 -4.98483,0.51665 -6.63085,0.19006 z m 5.26679,-1.76236 c 4.95499,-0.89746 8.91984,-4.45278 10.21029,-9.15566 0.52179,-1.90157 0.35004,-5.11615 -0.37624,-7.04258 -2.184,-5.79286 -8.6153,-9.20941 -14.96743,-7.95126 -1.92701,0.38169 -4.49173,1.60615 -5.94945,2.84043 -1.45837,1.23484 -3.06826,3.47706 -3.68633,5.13426 -0.64899,1.74005 -0.80755,5.24792 -0.31803,7.03589 0.75518,2.75834 2.45638,5.2063 4.72812,6.80364 3.15502,2.21837 6.65203,3.00671 10.35907,2.33528 z m -11.566,-27.50303 1.35442,-0.70476 v -2.43866 -2.43867 l -0.82606,0.39894 c -1.1492,0.555 -1.37306,0.99428 -1.65063,3.23901 -0.13344,1.07918 -0.28997,2.11666 -0.34785,2.30553 -0.14168,0.46231 -0.087,0.44887 1.47012,-0.36139 z m 19.6846,-0.031 c -0.0671,-0.40469 -0.23147,-1.52619 -0.36518,-2.49221 -0.24164,-1.74582 -0.24851,-1.7603 -1.14013,-2.40364 -0.49337,-0.35597 -0.98305,-0.64722 -1.08819,-0.64722 -0.10643,0 -0.19116,1.07934 -0.19116,2.43506 v 2.43507 l 1.29547,0.69072 c 0.7125,0.37989 1.36651,0.69686 1.45336,0.70437 0.0868,0.007 0.10297,-0.31746 0.0358,-0.72215 z"
       id="path39" />
  </g>
</svg>
