<?xml version="1.0" encoding="UTF-8" standalone="no"?>
<!-- Created with Inkscape (http://www.inkscape.org/) -->

<svg
   width="37.401489mm"
   height="26.807404mm"
   viewBox="0 0 37.401489 26.807404"
   version="1.1"
   id="svg2141"
   inkscape:version="1.1.1 (3bf5ae0d25, 2021-09-20)"
   sodipodi:docname="Crown.svg"
   xmlns:inkscape="http://www.inkscape.org/namespaces/inkscape"
   xmlns:sodipodi="http://sodipodi.sourceforge.net/DTD/sodipodi-0.dtd"
   xmlns="http://www.w3.org/2000/svg"
   xmlns:svg="http://www.w3.org/2000/svg">
  <sodipodi:namedview
     id="namedview2143"
     pagecolor="#ffffff"
     bordercolor="#666666"
     borderopacity="1.0"
     inkscape:pageshadow="2"
     inkscape:pageopacity="0.0"
     inkscape:pagecheckerboard="0"
     inkscape:document-units="mm"
     showgrid="false"
     fit-margin-top="0"
     fit-margin-left="0"
     fit-margin-right="0"
     fit-margin-bottom="0"
     inkscape:zoom="1.6076602"
     inkscape:cx="44.474573"
     inkscape:cy="80.862859"
     inkscape:window-width="1920"
     inkscape:window-height="986"
     inkscape:window-x="-11"
     inkscape:window-y="-11"
     inkscape:window-maximized="1"
     inkscape:current-layer="layer1" />
  <defs
     id="defs2138" />
  <g
     inkscape:label="Camada 1"
     inkscape:groupmode="layer"
     id="layer1"
     transform="translate(-93.267415,-104.98884)">
    <path
       style="fill:#ffffff;stroke-width:0.264583"
       d="m 122.32641,131.67524 c 0.25466,-0.0666 0.67138,-0.0666 0.92604,0 0.25466,0.0666 0.0463,0.121 -0.46302,0.121 -0.50933,0 -0.71769,-0.0545 -0.46302,-0.121 z m -1.74666,-1.11641 c -1.73325,-0.91562 -1.87062,-0.95745 -1.59998,-0.48715 0.11058,0.19215 0.0894,0.23835 -0.0505,0.11025 -0.13247,-0.12127 -0.24116,-0.3594 -0.24154,-0.52917 -2.6e-4,-0.16978 -0.2385,-0.31424 -0.52917,-0.32104 -0.29066,-0.007 -0.49871,-0.15562 -0.46233,-0.33073 0.0364,-0.1751 -0.06,-0.31837 -0.21406,-0.31837 -0.1541,0 -0.19078,-0.14883 -0.0815,-0.33073 0.1269,-0.21122 0.0315,-0.19504 -0.2639,0.0448 -0.3995,0.3243 -0.45153,0.3243 -0.38151,0 0.0488,-0.22608 -0.12952,-0.37566 -0.44809,-0.37587 -0.29105,-1.9e-4 -0.46964,-0.0712 -0.39688,-0.15777 0.0728,-0.0866 -0.0463,-0.38408 -0.26458,-0.66111 -0.36623,-0.46479 -0.36134,-0.47583 0.0632,-0.14298 0.25306,0.19839 0.38349,0.48468 0.28985,0.6362 -0.10212,0.16523 -0.0411,0.19567 0.15244,0.076 0.43601,-0.26947 -0.46182,-1.27862 -0.96559,-1.08531 -0.19864,0.0762 -0.28843,0.0209 -0.19952,-0.12296 0.0889,-0.14385 0.0393,-0.26155 -0.11024,-0.26155 -0.14955,0 -0.20337,-0.17859 -0.1196,-0.39687 0.0838,-0.21829 0.0411,-0.39688 -0.0948,-0.39688 -0.13588,0 -0.19482,-0.35597 -0.13096,-0.79105 0.0639,-0.43508 0.22183,-0.72571 0.35105,-0.64584 0.12922,0.0799 0.23495,-0.0404 0.23495,-0.26729 0,-0.22687 -0.10555,-0.41249 -0.23455,-0.41249 -0.42085,0 -0.49817,-1.5543 -0.0852,-1.71277 0.29402,-0.11282 0.31,-0.22914 0.071,-0.51707 -0.24495,-0.29515 -0.19671,-0.40691 0.23479,-0.54386 0.64586,-0.20499 0.72464,-0.66588 0.11383,-0.66588 -0.35445,0 -0.37099,-0.0702 -0.0949,-0.40293 0.28268,-0.34062 0.26052,-0.37458 -0.1433,-0.21962 -0.36599,0.14044 -0.42474,0.0955 -0.25122,-0.19238 0.18172,-0.30143 0.12795,-0.29724 -0.27197,0.0212 -0.29051,0.2313 -0.41556,0.2589 -0.29976,0.0662 0.18246,-0.30369 -0.12546,-0.45741 -0.71209,-0.35551 -0.11996,0.0208 -0.1427,-0.0841 -0.0505,-0.23325 0.15326,-0.24798 -0.20288,-0.38978 -0.74322,-0.29591 -0.11996,0.0208 -0.1427,-0.0841 -0.0505,-0.23326 0.15326,-0.24798 -0.20288,-0.38978 -0.74322,-0.29591 -0.11996,0.0208 -0.1427,-0.0841 -0.0505,-0.23325 0.0922,-0.14914 0.0344,-0.27115 -0.12824,-0.27115 -0.1627,0 -0.22867,-0.10865 -0.14661,-0.24143 0.0821,-0.13279 -0.14571,-0.20906 -0.50618,-0.16949 -0.36046,0.0396 -0.59215,-0.0304 -0.51485,-0.15544 0.13055,-0.21124 -0.26341,-0.34022 -0.77026,-0.25217 -0.11996,0.0208 -0.14269,-0.0841 -0.0505,-0.23325 0.15326,-0.24798 -0.20288,-0.38978 -0.74322,-0.29592 -0.11996,0.0208 -0.14269,-0.0841 -0.0505,-0.23325 0.15326,-0.24798 -0.20288,-0.38978 -0.74322,-0.29591 -0.11996,0.0208 -0.13019,-0.10436 -0.0227,-0.27822 0.13441,-0.21748 0.0537,-0.26174 -0.25866,-0.14187 -0.26968,0.10348 -0.38839,0.068 -0.29237,-0.0873 0.14548,-0.23541 -0.20425,-0.37582 -0.72949,-0.29289 -0.10914,0.0172 -0.19844,-0.0948 -0.19844,-0.24886 0,-0.15411 -0.13746,-0.19525 -0.30546,-0.0914 -0.18201,0.11249 -0.23392,0.073 -0.12845,-0.0976 0.16922,-0.2738 -0.77884,-0.7595 -1.2394,-0.63496 -0.11996,0.0324 -0.15041,-0.0506 -0.0677,-0.18444 0.16832,-0.27236 -0.57321,-0.63613 -0.89338,-0.43826 -0.21938,0.13559 -1.22896,-0.85899 -1.16242,-1.14516 0.0218,-0.0939 -0.0876,-0.13417 -0.24322,-0.0896 -0.1556,0.0446 -0.11393,-0.12373 0.0926,-0.37405 0.34358,-0.41641 0.32637,-0.42893 -0.2024,-0.14722 -0.73249,0.39026 -0.95974,0.39077 -0.71924,0.002 0.1297,-0.20986 0.01,-0.25927 -0.38162,-0.15696 -0.314,0.0821 -0.50419,0.0413 -0.42264,-0.0906 0.0815,-0.13195 0.0222,-0.25479 -0.13192,-0.27298 -0.15411,-0.0182 -0.38934,-0.048 -0.52274,-0.0661 -0.13339,-0.0182 -0.341751,-0.14146 -0.463019,-0.27393 -0.13053,-0.14259 -0.06887,-0.1529 0.151119,-0.0253 0.25985,0.15075 0.31055,0.11679 0.16858,-0.11292 -0.11167,-0.18068 -0.429277,-0.26935 -0.7058,-0.19704 -0.320761,0.0839 -0.602103,-0.0541 -0.777164,-0.38123 -0.150918,-0.282 -0.374042,-0.45113 -0.495831,-0.37586 -0.12179,0.0753 -0.205113,-0.0657 -0.185163,-0.31318 0.0204,-0.25307 -0.191642,-0.49678 -0.484471,-0.55684 -0.473119,-0.097 -0.485218,-0.0617 -0.132292,0.38674 0.356822,0.45335 0.350987,0.46416 -0.07165,0.13283 -0.253059,-0.19839 -0.39486,-0.46628 -0.315114,-0.59531 0.134283,-0.21728 -0.253023,-0.34846 -0.765799,-0.25938 -0.119957,0.0208 -0.142696,-0.0841 -0.05053,-0.23326 0.152273,-0.24638 -0.171136,-0.36831 -0.543726,-0.20499 -0.083,0.0364 -0.268908,-0.14472 -0.413136,-0.40244 -0.144229,-0.25772 -0.361503,-0.40723 -0.482832,-0.33225 -0.121328,0.075 -0.291763,-0.0491 -0.378744,-0.27579 -0.09229,-0.24049 -0.296662,-0.33238 -0.490745,-0.22064 -0.182929,0.10531 -0.243042,0.0928 -0.133584,-0.0279 0.109459,-0.12067 0.01502,-0.4227 -0.20986,-0.67119 -0.369165,-0.40793 -0.367887,-0.46753 0.01317,-0.61376 0.244466,-0.0938 0.354026,-0.0519 0.260391,0.0996 -0.137509,0.22249 0.501403,0.38963 0.746955,0.1954 0.04599,-0.0364 0.373414,0.23626 0.727604,0.60587 0.354189,0.36961 0.822574,0.66443 1.040856,0.65516 0.218281,-0.009 0.561055,0.14165 0.761719,0.33539 0.200664,0.19373 0.522023,0.29193 0.714129,0.21821 0.201958,-0.0775 0.296406,0.004 0.223918,0.19267 -0.07078,0.18446 0.107883,0.35139 0.410349,0.3834 0.294645,0.0312 0.767248,0.0822 1.050228,0.1134 0.377592,0.0416 0.441939,0.14413 0.241805,0.38528 -0.149987,0.18072 -0.195896,0.45287 -0.10202,0.60476 0.09388,0.1519 0.0446,0.27617 -0.109514,0.27617 -0.154109,0 -0.280199,0.13295 -0.280199,0.29545 0,0.16554 0.233526,0.23437 0.531151,0.15654 0.348489,-0.0911 0.663779,0.0504 0.916809,0.41171 0.33626,0.48007 0.4068,0.49554 0.55063,0.12071 0.19658,-0.51227 -0.0811,-1.05605 -0.42937,-0.84082 -0.13547,0.0837 -0.2463,0.0261 -0.2463,-0.12797 0,-0.15411 -0.13395,-0.25043 -0.29766,-0.21405 -0.16371,0.0364 -0.349951,-0.0759 -0.413868,-0.24942 -0.06879,-0.18678 0.106684,-0.29878 0.429948,-0.27443 0.30039,0.0226 0.54616,0.14189 0.54616,0.26504 0,0.12314 0.13746,0.13894 0.30546,0.0351 0.20325,-0.12561 0.23299,-0.0715 0.0889,0.16164 -0.15116,0.24459 -0.0999,0.30567 0.16959,0.20224 0.25492,-0.0978 0.39998,0.0352 0.42681,0.39136 0.0224,0.29675 0.17282,0.67062 0.33437,0.83083 0.21483,0.21304 0.24068,0.14914 0.0962,-0.23788 -0.16814,-0.45048 -0.13734,-0.48033 0.2071,-0.20074 0.22254,0.18064 0.48015,0.2529 0.57248,0.16057 0.0923,-0.0923 0.24267,0.0271 0.33411,0.26536 0.0914,0.23827 0.28518,0.35972 0.43055,0.26988 0.14536,-0.0898 0.0669,0.13794 -0.1744,0.50618 -0.24128,0.36825 -0.32977,0.73686 -0.19664,0.81914 0.33125,0.20472 0.57216,-0.0789 0.41496,-0.48857 -0.071,-0.18509 0.11575,-0.40025 0.41547,-0.47863 0.31722,-0.0829 0.47805,-0.0349 0.38529,0.11522 -0.0876,0.14168 0.0584,0.21987 0.32443,0.17376 0.28722,-0.0498 0.48864,0.0773 0.49595,0.31303 0.007,0.21828 0.21653,0.38056 0.46611,0.36061 0.24959,-0.0199 0.38852,0.0693 0.30874,0.19843 -0.13434,0.21737 0.25287,0.34858 0.76573,0.25949 0.11996,-0.0208 0.13019,0.10436 0.0227,0.27821 -0.13441,0.21749 -0.0537,0.26175 0.25866,0.14188 0.26968,-0.10349 0.38839,-0.068 0.29237,0.0873 -0.14827,0.23991 0.21566,0.379 0.74914,0.28633 0.11996,-0.0208 0.148,0.0755 0.0623,0.2142 -0.15286,0.24733 0.83195,0.71655 1.26061,0.60064 0.11996,-0.0324 0.1427,0.063 0.0505,0.21216 -0.15326,0.24798 0.20288,0.38978 0.74322,0.29592 0.11996,-0.0208 0.13019,0.10436 0.0227,0.27821 -0.13245,0.21432 -0.0563,0.26275 0.23644,0.1504 0.2375,-0.0911 0.51355,-0.0334 0.61345,0.12821 0.11765,0.19036 0.0596,0.21849 -0.16469,0.0799 -0.23607,-0.1459 -0.28269,-0.11105 -0.14641,0.10945 0.10996,0.17792 0.39262,0.24956 0.62812,0.15919 0.23551,-0.0904 0.34329,-0.0794 0.23951,0.0244 -0.25936,0.25937 0.80153,0.96886 1.13788,0.76098 0.14887,-0.092 0.23796,-0.01 0.19797,0.18312 -0.0402,0.19379 0.13296,0.33418 0.38747,0.31412 0.2531,-0.0199 0.3949,0.0693 0.31512,0.19843 -0.13434,0.21737 0.25287,0.34858 0.76573,0.25949 0.11996,-0.0208 0.13019,0.10436 0.0227,0.27822 -0.13441,0.21748 -0.0537,0.26174 0.25866,0.14187 0.30597,-0.11741 0.39225,-0.0743 0.26458,0.1323 -0.12766,0.20656 -0.0414,0.2497 0.26459,0.13229 0.26968,-0.10349 0.38838,-0.068 0.29237,0.0873 -0.39627,0.64117 0.7734,0.17677 1.50703,-0.59835 0.44763,-0.47294 0.72951,-0.6813 0.62639,-0.46302 -0.10312,0.21828 0.0299,0.15256 0.29569,-0.14606 0.49163,-0.55243 0.66226,-0.64769 1.16025,-0.64769 0.15411,0 0.20746,-0.1177 0.11855,-0.26155 -0.096,-0.15536 0.0227,-0.19082 0.29237,-0.0873 0.30597,0.11741 0.39225,0.0743 0.26459,-0.13229 -0.12377,-0.20026 -0.0471,-0.2519 0.22118,-0.14895 0.22641,0.0869 0.41061,0.0192 0.41061,-0.15094 0,-0.16967 0.12428,-0.23169 0.27617,-0.13782 0.1519,0.0939 0.4416,0.0334 0.64378,-0.13439 0.2808,-0.23305 0.54356,-0.21179 1.11289,0.0901 l 0.74529,0.39513 -0.8722,-0.0212 c -1.56399,-0.0379 -1.54344,0.45504 0.0571,1.3708 1.42174,0.81344 1.90795,1.21947 1.07964,0.90162 -0.21828,-0.0838 -0.39687,-0.0181 -0.39687,0.14598 0,0.38164 -1.93897,-0.59312 -2.70642,-1.36058 -0.36712,-0.36711 -0.60482,-0.45675 -0.67253,-0.2536 -0.0576,0.1728 -0.26727,0.31419 -0.46593,0.31419 -0.19866,0 -0.68078,0.29618 -1.07139,0.65819 -0.62109,0.57561 -0.6643,0.7139 -0.34437,1.10222 0.33141,0.40224 0.29529,0.42645 -0.38377,0.25729 -0.61787,-0.15393 -0.77441,-0.0919 -0.89075,0.35298 -0.0776,0.29686 -0.33562,0.54496 -0.57331,0.55135 -0.23769,0.006 0.005,0.16767 0.53886,0.35842 0.53407,0.19074 1.47976,0.72094 2.10155,1.17821 0.80463,0.59173 1.18712,0.73983 1.32684,0.51376 0.12339,-0.19965 -0.0774,-0.45021 -0.54074,-0.67459 -0.40538,-0.19633 -1.14176,-0.70304 -1.6364,-1.12602 -1.19069,-1.01819 -0.4204,-1.05541 0.97918,-0.0473 0.56754,0.40879 1.24779,0.82467 1.51167,0.92417 0.27755,0.10466 0.39973,0.31047 0.28985,0.48826 -0.12083,0.1955 -0.0741,0.23575 0.12837,0.1106 0.24374,-0.15064 0.24573,-0.28418 0.008,-0.57005 -0.24784,-0.29862 -0.21071,-0.37454 0.18559,-0.37945 0.27248,-0.003 0.95505,-0.4201 1.51682,-0.92604 1.01146,-0.91095 1.25118,-1.02246 2.0213,-0.94022 0.35278,0.0377 0.35278,0.0122 0,-0.22919 -0.32591,-0.22301 -0.29043,-0.27229 0.19844,-0.27561 0.32742,-0.002 0.59531,0.11501 0.59531,0.26053 0,0.14552 0.17029,0.26458 0.37841,0.26458 0.29465,0 0.32802,-0.17569 0.15076,-0.79375 -0.1252,-0.43656 -0.20619,-0.80286 -0.17997,-0.81399 0.49766,-0.21131 0.91105,-0.12431 0.79884,0.16811 -0.0978,0.2548 0.0343,0.32704 0.45099,0.24679 0.32408,-0.0624 0.51264,-0.0369 0.41902,0.0567 -0.20466,0.20466 1.17669,1.15513 1.4412,0.99166 0.24632,-0.15224 0.85948,0.60498 0.93825,1.1587 0.0345,0.24252 0.27031,1.02591 0.52402,1.74087 0.46783,1.31835 0.44547,1.66068 -0.30387,4.65321 -0.12909,0.51553 -0.1031,0.5739 0.11785,0.26458 0.15592,-0.21828 0.28531,-0.26789 0.28754,-0.11025 0.007,0.50459 -0.33225,0.64462 -0.74253,0.30639 -0.34631,-0.2855 -0.35797,-0.25256 -0.0892,0.25194 0.27262,0.51168 0.24824,0.56863 -0.206,0.48115 -0.35954,-0.0692 -0.47148,0.0148 -0.37047,0.278 0.0796,0.20748 0.26974,0.29999 0.4225,0.20558 0.16758,-0.10358 0.19855,-0.0435 0.0781,0.15141 -0.10982,0.17769 -0.26609,0.25665 -0.34727,0.17547 -0.19006,-0.19007 -0.85774,0.35977 -0.85774,0.70635 0,0.14552 0.20836,0.10323 0.46302,-0.094 0.37694,-0.2919 0.36931,-0.24874 -0.041,0.23218 -0.51637,0.60523 -0.84701,0.79978 -0.5543,0.32618 0.29617,-0.47922 -0.14295,-0.27618 -0.87144,0.40293 -0.9838,0.91711 -2.62848,1.67827 -4.03607,1.86789 -0.9888,0.13321 -1.42647,0.0274 -2.72613,-0.65919 z m 4.31345,-1.20103 c 0.33468,-0.35625 0.92098,-0.71791 1.30289,-0.80369 0.38191,-0.0858 0.99203,-0.38697 1.35584,-0.6693 0.55749,-0.43266 0.58571,-0.51426 0.17954,-0.51922 -0.44431,-0.005 -0.44846,-0.0393 -0.0532,-0.43465 0.23582,-0.23582 0.4968,-0.76894 0.57995,-1.18469 0.0832,-0.41576 0.32832,-0.90293 0.54481,-1.08261 0.32055,-0.26603 0.46584,-0.2303 0.78268,0.19251 0.37609,0.50186 0.38616,0.49767 0.3021,-0.12537 -0.0704,-0.52152 -0.23846,-0.64381 -0.88071,-0.64069 -1.19433,0.006 -2.71183,0.58964 -3.23701,1.24538 -0.60578,0.75638 -2.18695,1.87081 -2.18695,1.54139 0,-0.13986 0.17859,-0.32282 0.39687,-0.40659 0.21828,-0.0838 0.38748,-0.30486 0.37599,-0.49133 -0.0163,-0.26554 -0.0498,-0.26734 -0.15434,-0.008 -0.0734,0.1819 -0.30213,0.33073 -0.50828,0.33073 -0.43862,0 -0.49343,-0.87151 -0.10093,-1.6049 0.29534,-0.55186 1.04902,-0.70381 1.04902,-0.21151 0,0.16515 0.24677,-0.0134 0.54837,-0.39687 0.44371,-0.56409 0.77017,-0.69714 1.71048,-0.69714 1.27763,0 1.88566,-0.61693 1.57444,-1.59749 -0.0955,-0.30082 -0.0425,-0.51917 0.12594,-0.51917 0.15989,0 0.36157,-0.18466 0.44817,-0.41034 0.18769,-0.48911 -0.87402,-1.70992 -1.47696,-1.69828 -0.35084,0.007 -0.34353,0.0508 0.0461,0.27773 0.25466,0.14832 0.46302,0.43696 0.46302,0.64142 0,0.49128 -1.78941,0.82673 -2.39445,0.44887 -0.38241,-0.23882 -0.43661,-0.20373 -0.32782,0.21226 0.0779,0.29787 0.41222,0.5315 0.83099,0.58068 l 0.70066,0.0823 -0.77385,0.6603 c -2.12559,1.81365 -3.06267,2.87496 -3.0636,3.46974 -5.3e-4,0.34657 -0.23867,1.01996 -0.52917,1.49642 -0.29049,0.47646 -0.52817,0.93665 -0.52817,1.02265 0,0.20169 1.90246,1.94752 2.12225,1.94752 0.0917,0 0.44059,-0.29148 0.77527,-0.64774 z m -0.78086,-0.15432 c 0,-0.14095 0.1786,-0.25628 0.39688,-0.25628 0.21828,0 0.39687,0.0468 0.39687,0.10399 0,0.0572 -0.17859,0.17251 -0.39687,0.25628 -0.21828,0.0838 -0.39688,0.037 -0.39688,-0.10399 z m -0.26458,-1.05003 c 0,-0.29104 0.17449,-0.52916 0.38775,-0.52916 0.21327,0 0.74502,-0.32742 1.18168,-0.72761 1.44586,-1.32508 2.3514,-1.9297 2.44946,-1.6355 0.12591,0.37771 -1.52202,2.08861 -2.7272,2.83142 -1.17343,0.72325 -1.29169,0.72882 -1.29169,0.0608 z m 2.17724,-2.43068 c 0.13184,-0.39551 0.73318,-0.61327 0.73318,-0.26551 0,0.14208 -0.18855,0.33068 -0.41899,0.41911 -0.25768,0.0989 -0.37864,0.0398 -0.31419,-0.1536 z m 0.73318,-2.87838 c 0,-0.53809 0.54982,-1.30552 0.93535,-1.30552 0.25424,0 0.38756,0.27306 0.38756,0.79375 0,0.67028 -0.10289,0.79375 -0.66145,0.79375 -0.36381,0 -0.66146,-0.12689 -0.66146,-0.28198 z m -5.31027,6.30125 c -0.0102,-0.32742 -0.12898,-0.83344 -0.26391,-1.12448 -0.18634,-0.40196 -0.20862,-0.32245 -0.0927,0.33073 0.15644,0.88128 -0.13476,1.1238 -0.63118,0.52565 -0.15257,-0.18384 -0.41941,-0.89821 -0.59297,-1.5875 -0.17357,-0.68929 -0.40956,-1.25325 -0.52442,-1.25325 -0.37233,0 0.65162,2.76421 1.19736,3.23234 0.71449,0.61289 0.92988,0.58359 0.90779,-0.12349 z m -2.05181,-0.61992 c -0.0473,-0.41957 -0.19512,-0.89429 -0.32843,-1.05493 -0.13332,-0.16063 -0.15414,-0.3895 -0.0463,-0.50858 0.10788,-0.11908 0.0415,-0.12729 -0.14744,-0.0182 -0.21773,0.12564 -0.25532,0.31077 -0.10262,0.50544 0.39852,0.50806 0.59736,1.70877 0.30684,1.85293 -0.14891,0.0739 -0.11894,0.10102 0.0666,0.0603 0.20425,-0.0448 0.3034,-0.37503 0.25131,-0.83691 z m 1.60739,-2.70308 c -0.0364,-0.17326 0.14221,-0.32442 0.39687,-0.33591 0.27661,-0.0125 0.32987,-0.0746 0.1323,-0.15434 -0.55956,-0.22579 -0.36772,-0.84511 0.39687,-1.2812 0.68132,-0.38859 0.68631,-0.40373 0.0785,-0.23812 -0.61029,0.16629 -0.62228,0.15003 -0.20047,-0.27179 0.24676,-0.24676 0.55069,-0.38559 0.6754,-0.30851 0.12471,0.0771 0.48202,-0.15346 0.79403,-0.5123 0.312,-0.35884 0.50579,-0.65243 0.43064,-0.65243 -0.0752,0 0.0552,-0.29276 0.28963,-0.65057 0.41178,-0.62846 0.40292,-0.65643 -0.26041,-0.82292 -0.85579,-0.21479 -1.84304,0.39138 -2.40391,1.47598 -0.22505,0.43519 -0.47268,0.79126 -0.55029,0.79126 -0.0776,0 -0.0752,-0.10659 0.005,-0.23686 0.0805,-0.13027 -0.0315,-0.30513 -0.24897,-0.38857 -0.21744,-0.0834 -0.39535,-0.0364 -0.39535,0.10456 0,0.38805 -0.62918,0.3071 -1.2062,-0.15519 -0.49612,-0.39748 -0.49393,-0.40197 0.0643,-0.13229 0.31786,0.15355 0.66373,0.27918 0.76861,0.27918 0.38987,0 -0.85468,-1.13542 -1.94478,-1.77427 -1.16272,-0.6814 -1.91529,-0.66325 -1.91529,0.0462 0,0.22284 -0.13301,0.37541 -0.29558,0.33903 -0.16257,-0.0364 -0.33063,0.14221 -0.37347,0.39687 -0.0428,0.25466 0.0604,0.46485 0.22944,0.46707 0.21223,0.003 0.21948,0.0642 0.0234,0.19844 -0.58351,0.39955 -0.60494,1.07205 -0.0497,1.55859 0.38172,0.33447 0.49178,0.36309 0.35,0.091 -0.11375,-0.21828 0.0741,-0.0906 0.41754,0.28383 0.34339,0.37439 0.85556,0.85064 1.13816,1.05833 0.44991,0.33067 0.48952,0.32827 0.31847,-0.0193 -0.10743,-0.21828 0.003,-0.12898 0.24607,0.19844 0.50237,0.67755 1.17061,0.79082 1.17061,0.19844 0,-0.21829 0,-0.48618 0,-0.59532 0,-0.10914 -0.10914,-0.19843 -0.24254,-0.19843 -0.13339,0 -0.34175,-0.10839 -0.46302,-0.24086 -0.1281,-0.13994 -0.0819,-0.16111 0.11024,-0.0505 0.1819,0.10468 0.33073,0.0754 0.33073,-0.0651 0,-0.14049 0.22456,-0.19671 0.49903,-0.12493 0.34185,0.0894 0.55209,0.46233 0.6675,1.18409 0.13048,0.81595 0.27155,1.03101 0.62545,0.9535 0.25134,-0.0551 0.42722,-0.24186 0.39083,-0.41512 z m -1.84191,-2.4078 c -0.23401,-0.37471 -0.16002,-0.45428 0.46686,-0.50204 0.8203,-0.0625 1.24441,0.322 0.71791,0.65087 -0.56911,0.35548 -0.89542,0.31449 -1.18477,-0.14883 z m -3.23177,-0.66179 c -0.2118,-0.25521 -0.22205,-0.42757 -0.0324,-0.54478 0.15259,-0.0943 0.28654,-0.13467 0.29768,-0.0897 0.11877,0.47968 0.18219,1.0078 0.12103,1.0078 -0.0421,0 -0.2159,-0.16799 -0.38631,-0.37332 z m 0.47587,-1.41262 c -0.32911,-0.41964 -0.31975,-0.429 0.0999,-0.0999 0.44073,0.34564 0.58089,0.56291 0.36313,0.56291 -0.0549,0 -0.2633,-0.20836 -0.46302,-0.46302 z m 0.43062,-0.4862 -0.79375,-0.68201 0.8599,0.56905 c 0.47294,0.31298 0.85989,0.62048 0.85989,0.68332 0,0.19806 -0.11204,0.12905 -0.92604,-0.57036 z m 8.31198,0.7664 c 0.0123,-0.17331 -0.11506,-0.40007 -0.28307,-0.5039 -0.19716,-0.12185 -0.23329,-0.072 -0.10191,0.14056 0.12756,0.20639 -0.1782,0.73566 -0.81902,1.41773 l -1.02256,1.08838 1.10208,-0.91383 c 0.60615,-0.5026 1.11216,-1.05563 1.12448,-1.22894 z m -0.40324,-2.08659 c 0.0794,-0.20703 0.0802,-0.37642 0.002,-0.37642 -0.18567,0 -0.89884,0.71317 -0.89884,0.89884 0,0.28482 0.75654,-0.15566 0.89728,-0.52242 z m 1.8147,0.2421 c -0.1819,-0.0734 -0.47956,-0.0734 -0.66146,0 -0.1819,0.0734 -0.0331,0.13346 0.33073,0.13346 0.3638,0 0.51263,-0.0601 0.33073,-0.13346 z m 0.19844,-0.90853 c -0.29486,-0.20944 -0.10784,-0.2416 0.7276,-0.12511 0.61846,0.0862 1.12448,0.1143 1.12448,0.0624 0,-0.0519 -0.25859,-0.32122 -0.57465,-0.59844 -0.31605,-0.27722 -0.49586,-0.36854 -0.39957,-0.20293 0.11493,0.19767 -0.23296,0.36228 -1.01286,0.47923 -1.37079,0.20556 -1.60124,0.67683 -0.32802,0.67083 0.68097,-0.003 0.77731,-0.0627 0.46302,-0.28596 z m 2.91041,0.19011 c 0,-0.0549 -0.20836,-0.2633 -0.46302,-0.46302 -0.41964,-0.3291 -0.429,-0.31975 -0.0999,0.0999 0.34564,0.44073 0.56291,0.58089 0.56291,0.36312 z m -14.55375,-0.6277 c -0.002,-0.20473 -1.33448,-1.07676 -2.21955,-1.45227 -1.01847,-0.43211 -0.70414,0.0531 0.54069,0.83471 1.32056,0.82911 1.68176,0.96197 1.67886,0.61756 z m -4.50155,-2.85067 c -0.18408,-0.2218 -0.38917,-0.34878 -0.45577,-0.28219 -0.18349,0.18349 0.18932,0.68546 0.50908,0.68546 0.17545,0 0.15538,-0.15181 -0.0533,-0.40327 z M 109.56026,114.96 c 0,-0.22504 -3.85977,-2.60927 -4.89479,-3.02358 -1.15922,-0.46402 0.92989,1.24548 2.69809,2.20783 1.96912,1.07171 2.1967,1.15622 2.1967,0.81575 z m -5.39715,-2.48311 c 0.10468,-0.1819 0.0929,-0.24246 -0.0262,-0.13459 -0.11908,0.10788 -0.40606,0.0483 -0.63773,-0.13229 -0.37269,-0.29059 -0.37938,-0.27508 -0.0581,0.13459 0.43279,0.55186 0.476,0.55978 0.72201,0.13229 z M 99.016615,108.442 c 0,-0.13825 -0.127993,-0.29402 -0.284428,-0.34617 -0.156434,-0.0521 -0.284427,0.10363 -0.284427,0.34617 0,0.24253 0.127993,0.3983 0.284427,0.34616 0.156435,-0.0522 0.284428,-0.20792 0.284428,-0.34616 z m -1.627188,-0.92605 c -0.518153,-0.33485 -0.868411,-0.33485 -0.661458,0 0.08994,0.14552 0.364854,0.26276 0.610927,0.26054 0.385571,-0.004 0.392554,-0.0395 0.05053,-0.26054 z m 27.781253,23.70852 c 0,-0.0572 0.18477,-0.17489 0.41061,-0.26155 0.23546,-0.0904 0.34167,-0.046 0.24897,0.10398 -0.15538,0.25141 -0.65958,0.37186 -0.65958,0.15757 z m 1.98437,-1.21893 c 0.26339,-0.29104 0.53842,-0.52917 0.61118,-0.52917 0.0728,0 -0.0832,0.23813 -0.34659,0.52917 -0.26339,0.29104 -0.53843,0.52916 -0.61119,0.52916 -0.0728,0 0.0832,-0.23812 0.3466,-0.52916 z m -7.14375,-10.05417 c -0.0899,-0.14552 -0.0445,-0.26458 0.10106,-0.26458 0.14553,0 0.33817,0.11906 0.42811,0.26458 0.0899,0.14552 0.0445,0.26458 -0.10106,0.26458 -0.14553,0 -0.33817,-0.11906 -0.42811,-0.26458 z m -0.4713,-0.94644 c -1.40618,-0.87957 -1.88695,-1.43481 -1.24236,-1.43481 0.37369,0 3.414,1.93778 3.42475,2.18281 0.0184,0.41825 -0.72548,0.16331 -2.18239,-0.748 z m 0.0744,-0.48046 c 0,-0.0572 -0.18478,-0.17489 -0.41062,-0.26155 -0.23546,-0.0904 -0.34166,-0.046 -0.24897,0.10398 0.15538,0.25141 0.65959,0.37186 0.65959,0.15757 z m -0.39688,0.89773 c -0.0899,-0.14552 -0.0374,-0.26458 0.11668,-0.26458 0.15411,0 0.2802,0.11906 0.2802,0.26458 0,0.14552 -0.0525,0.26459 -0.11668,0.26459 -0.0642,0 -0.19026,-0.11907 -0.2802,-0.26459 z m 1.45629,-1.20842 c -1.52066,-0.94304 -1.93273,-1.43741 -1.19814,-1.43741 0.26109,0 0.35918,0.12193 0.24575,0.30546 -0.12291,0.19889 -0.0719,0.23322 0.14626,0.0984 0.18428,-0.11389 0.41103,-0.0962 0.5039,0.0392 0.0929,0.13547 0.61534,0.51762 1.16105,0.84923 0.5457,0.33161 0.99218,0.71227 0.99218,0.84593 0,0.37778 -0.28688,0.26916 -1.851,-0.70084 z m 4.41733,-1.52755 c -0.0749,-0.1951 -0.0299,-0.52252 0.0999,-0.7276 0.1814,-0.28656 0.23699,-0.2927 0.2401,-0.0265 0.002,0.19049 0.13499,0.26542 0.29503,0.16651 0.20451,-0.1264 0.20174,-0.0131 -0.009,0.38126 -0.35112,0.65607 -0.44173,0.68595 -0.62576,0.20637 z m -1.05503,-0.7098 c -0.24913,-0.29097 -0.45114,-0.67649 -0.44891,-0.85673 0.003,-0.23323 0.0706,-0.22259 0.235,0.0369 0.13454,0.21241 0.37082,0.27819 0.566,0.15756 0.20858,-0.12892 0.26906,-0.10031 0.16022,0.0758 -0.0962,0.15558 -0.0252,0.33769 0.15756,0.40469 0.23156,0.0849 0.24907,0.21114 0.0577,0.4163 -0.19894,0.21331 -0.39949,0.14867 -0.7276,-0.23453 z"
       id="path2265" />
  </g>
</svg>
