<?xml version="1.0" encoding="UTF-8" standalone="no"?>
<!-- Created with Inkscape (http://www.inkscape.org/) -->

<svg
   width="21.669485mm"
   height="21.383411mm"
   viewBox="0 0 21.669485 21.383411"
   version="1.1"
   id="svg42"
   inkscape:version="1.1.1 (3bf5ae0d25, 2021-09-20)"
   sodipodi:docname="Glass.svg"
   xmlns:inkscape="http://www.inkscape.org/namespaces/inkscape"
   xmlns:sodipodi="http://sodipodi.sourceforge.net/DTD/sodipodi-0.dtd"
   xmlns="http://www.w3.org/2000/svg"
   xmlns:svg="http://www.w3.org/2000/svg">
  <sodipodi:namedview
     id="namedview44"
     pagecolor="#ffffff"
     bordercolor="#666666"
     borderopacity="1.0"
     inkscape:pageshadow="2"
     inkscape:pageopacity="0.0"
     inkscape:pagecheckerboard="0"
     inkscape:document-units="mm"
     showgrid="false"
     fit-margin-top="0"
     fit-margin-left="0"
     fit-margin-right="0"
     fit-margin-bottom="0"
     inkscape:zoom="0.69664703"
     inkscape:cx="33.733008"
     inkscape:cy="-41.627968"
     inkscape:window-width="1920"
     inkscape:window-height="986"
     inkscape:window-x="-11"
     inkscape:window-y="-11"
     inkscape:window-maximized="1"
     inkscape:current-layer="layer1" />
  <defs
     id="defs39" />
  <g
     inkscape:label="Camada 1"
     inkscape:groupmode="layer"
     id="layer1"
     transform="translate(-96.130329,-159.59146)">
    <path
       style="fill:#ffffff;stroke-width:0.264583"
       d="m 101.81064,180.61851 c -1.7052,-0.47324 -2.646665,-1.0248 -3.721285,-2.18014 -1.00482,-1.08029 -1.85991,-2.66991 -1.24167,-2.30828 0.18301,0.10704 0.0946,-0.0765 -0.19643,-0.40794 -0.44957,-0.51192 -0.52785,-0.97211 -0.52047,-3.05953 0.008,-2.34462 0.0591,-2.55808 1.11113,-4.66844 1.38019,-2.76863 2.976945,-4.59452 5.484745,-6.27184 2.74286,-1.83454 4.12691,-2.24428 7.11501,-2.10636 4.52156,0.20869 6.96056,2.15999 7.817,6.25391 0.34834,1.66514 0.0358,4.12601 -0.75989,5.98215 -0.54522,1.27196 -0.85332,1.5976 -0.6019,0.63617 0.0993,-0.37984 0.0506,-0.5096 -0.14579,-0.38823 -0.16224,0.10027 -0.0532,-0.50619 0.24233,-1.34769 0.42265,-1.20349 0.5161,-2.00993 0.43792,-3.77895 -0.0547,-1.23693 -0.25099,-2.48709 -0.43627,-2.77813 -0.18529,-0.29104 -0.28144,-0.34516 -0.21369,-0.12026 0.0798,0.265 -0.0598,0.4227 -0.39689,0.44808 -0.44888,0.0338 -0.47207,-0.0199 -0.16937,-0.39229 0.30006,-0.36915 0.2885,-0.4082 -0.08,-0.27033 -0.23693,0.0886 -0.54947,0.0425 -0.69453,-0.10259 -0.17528,-0.17528 -0.26376,-0.025 -0.26376,0.44799 0,0.50822 -0.33101,1.00439 -1.15755,1.7351 -1.32251,1.16917 -2.10128,1.46605 -2.79203,1.06434 -0.41802,-0.24309 -0.37656,-0.28207 0.31156,-0.29293 0.56618,-0.009 1.15773,-0.35393 2.06327,-1.20332 0.69823,-0.65493 1.20494,-1.29526 1.12603,-1.42295 -0.30695,-0.49666 -3.928,0.68145 -4.20547,1.36825 -0.073,0.18063 -0.14207,0.0766 -0.15356,-0.23122 -0.0473,-1.26759 2.65794,-3.2964 3.6719,-2.75375 0.32676,0.17488 0.45235,0.1391 0.45235,-0.12885 0,-0.20402 -0.0957,-0.31179 -0.21272,-0.23948 -0.11699,0.0723 -0.54363,-0.0357 -0.94809,-0.23992 -0.40445,-0.20427 -0.90077,-0.31275 -1.10293,-0.24107 -0.22451,0.0796 -0.29566,0.014 -0.18282,-0.1686 0.10712,-0.17333 0.0114,-0.29891 -0.22776,-0.29891 -0.22687,0 -0.41249,-0.11906 -0.41249,-0.26458 0,-0.14552 -0.19843,-0.26458 -0.44097,-0.26458 -0.24253,0 -0.38087,-0.0601 -0.30741,-0.13357 0.13296,-0.13296 2.25388,0.21059 3.26192,0.52838 0.29105,0.0917 0.11245,-0.069 -0.39687,-0.35724 -1.20168,-0.68004 -3.45916,-0.9271 -5.29167,-0.57913 -1.73364,0.32921 -4.76357,1.77471 -6.16661,2.94194 -1.806995,1.50329 -4.391145,5.46552 -3.988975,6.11624 0.10727,0.17357 0.0643,0.2229 -0.10377,0.11905 -0.18348,-0.1134 -0.28898,0.13421 -0.2926,0.68672 -0.0195,2.96939 0.023,3.61619 0.30018,4.56823 0.16944,0.58208 0.32004,1.1774 0.33466,1.32292 0.0146,0.14552 0.12065,0.54446 0.23563,0.88653 0.14931,0.44423 0.29046,0.54053 0.49397,0.33702 0.34098,-0.34097 0.98543,0.0913 0.98543,0.66093 0,0.20046 0.16014,0.36448 0.35587,0.36448 0.432835,0 1.295745,0.90602 1.074055,1.12772 -0.28774,0.28773 -0.870335,-0.10538 -0.72345,-0.48816 0.0791,-0.20624 0.005,-0.37498 -0.164615,-0.37498 -0.16968,0 -0.23492,0.11906 -0.14499,0.26458 0.426725,0.69045 -0.48603,0.13579 -1.63275,-0.99218 -1.04743,-1.03031 -1.15322,-1.08991 -0.58707,-0.33073 1.63669,2.19469 4.878175,3.26771 8.085925,2.67666 2.50622,-0.46179 5.29964,-1.90326 7.10596,-3.66684 0.83151,-0.81183 1.37835,-1.22664 1.2152,-0.9218 -0.45261,0.84571 -0.35733,0.98616 0.29868,0.4403 0.32742,-0.27244 -0.0558,0.18572 -0.85166,1.01815 -2.29647,2.40203 -6.45153,4.20955 -9.5032,4.13403 -0.52584,-0.013 -1.49186,-0.17235 -2.1467,-0.35408 z m -4.730205,-5.88627 c -0.3119,-0.53636 -0.38722,-0.36469 -0.13191,0.30066 0.0907,0.23646 0.22072,0.37419 0.28884,0.30607 0.0681,-0.0681 -0.002,-0.34115 -0.15693,-0.60673 z m 17.424895,-13.18926 c -0.18407,-0.22179 -0.40356,-0.33438 -0.48775,-0.25019 -0.0842,0.0842 0.0221,0.26383 0.23614,0.39921 0.56011,0.35423 0.6333,0.31089 0.25161,-0.14902 z m -13.00888,17.94962 c 0.19099,-0.0764 0.41919,-0.067 0.50712,0.0209 0.0879,0.0879 -0.0684,0.15046 -0.34727,0.13897 -0.30823,-0.0127 -0.37092,-0.0754 -0.15985,-0.15985 z m -3.296925,-2.93078 c 0.0961,-0.15558 0.0252,-0.34317 -0.15755,-0.41687 -0.2379,-0.0959 -0.24281,-0.13994 -0.0173,-0.15489 0.45531,-0.0302 0.67403,0.43804 0.30978,0.66317 -0.18464,0.11411 -0.23916,0.0772 -0.13496,-0.0914 z m 16.046535,-2.01546 c 0,-0.0549 0.20836,-0.2633 0.46302,-0.46302 0.41964,-0.32911 0.429,-0.31975 0.0999,0.0999 -0.34564,0.44073 -0.56291,0.58089 -0.56291,0.36313 z m 1.05833,-1.48761 c 0.15576,-0.29104 0.34273,-0.52916 0.41549,-0.52916 0.0728,0 0.005,0.23812 -0.15091,0.52916 -0.15576,0.29104 -0.34273,0.52917 -0.41549,0.52917 -0.0728,0 -0.005,-0.23813 0.15091,-0.52917 z m -5.23109,-11.16193 c 0.13183,-0.39551 0.73317,-0.61327 0.73317,-0.26551 0,0.14208 -0.18854,0.33068 -0.41898,0.41911 -0.25768,0.0989 -0.37864,0.0397 -0.31419,-0.1536 z"
       id="path514" />
  </g>
</svg>
