<?xml version="1.0" encoding="UTF-8" standalone="no"?>
<!-- Created with Inkscape (http://www.inkscape.org/) -->

<svg
   width="51.312649mm"
   height="52.37064mm"
   viewBox="0 0 51.31265 52.37064"
   version="1.1"
   id="svg5"
   inkscape:version="1.1.1 (3bf5ae0d25, 2021-09-20)"
   sodipodi:docname="Movement.svg"
   xmlns:inkscape="http://www.inkscape.org/namespaces/inkscape"
   xmlns:sodipodi="http://sodipodi.sourceforge.net/DTD/sodipodi-0.dtd"
   xmlns="http://www.w3.org/2000/svg"
   xmlns:svg="http://www.w3.org/2000/svg">
  <sodipodi:namedview
     id="namedview7"
     pagecolor="#ffffff"
     bordercolor="#666666"
     borderopacity="1.0"
     inkscape:pageshadow="2"
     inkscape:pageopacity="0.0"
     inkscape:pagecheckerboard="0"
     inkscape:document-units="mm"
     showgrid="false"
     fit-margin-top="0"
     fit-margin-left="0"
     fit-margin-right="0"
     fit-margin-bottom="0"
     inkscape:zoom="1.5004828"
     inkscape:cx="56.981658"
     inkscape:cy="192.60467"
     inkscape:window-width="1920"
     inkscape:window-height="986"
     inkscape:window-x="-11"
     inkscape:window-y="-11"
     inkscape:window-maximized="1"
     inkscape:current-layer="layer1" />
  <defs
     id="defs2" />
  <g
     inkscape:label="Camada 1"
     inkscape:groupmode="layer"
     id="layer1"
     transform="translate(-89.946053,-97.533264)">
    <path
       style="fill:#ffffff;stroke-width:0.264583"
       d="m 101.75268,155.4194 c 0,-0.0572 0.18478,-0.17489 0.41062,-0.26155 0.23546,-0.0904 0.34166,-0.046 0.24897,0.10398 -0.15538,0.25141 -0.65959,0.37186 -0.65959,0.15757 z m 1.32292,-0.29289 c 0,-0.21828 0.0468,-0.39688 0.10398,-0.39688 0.0572,0 0.17252,0.1786 0.25628,0.39688 0.0838,0.21828 0.037,0.39687 -0.10398,0.39687 -0.14096,0 -0.25628,-0.17859 -0.25628,-0.39687 z m 0.97014,0.22048 c -0.097,-0.097 -0.17639,-0.47404 -0.17639,-0.83784 0,-0.84394 0.34698,-0.52467 0.38547,0.35469 0.0322,0.73574 0.0356,0.72786 -0.20908,0.48315 z m 4.23333,0 c -0.097,-0.097 -0.17639,-0.47404 -0.17639,-0.83784 0,-0.84394 0.34698,-0.52467 0.38548,0.35469 0.0322,0.73574 0.0356,0.72786 -0.20909,0.48315 z m 0.75152,-0.0852 c -0.0927,-0.14998 0.0135,-0.19434 0.24897,-0.10398 0.45837,0.17589 0.54224,0.36553 0.16165,0.36553 -0.13693,0 -0.32171,-0.1177 -0.41062,-0.26155 z m 1.04802,-0.27694 c -0.28163,-0.3112 -0.6619,-0.47211 -0.9009,-0.3812 -0.33138,0.12603 -0.34784,0.0911 -0.0828,-0.17588 0.25351,-0.25539 0.40338,-0.26052 0.64193,-0.022 0.23855,0.23855 0.40842,0.23546 0.72761,-0.0132 0.36278,-0.28266 0.37192,-0.26756 0.071,0.11723 -0.29146,0.37269 -0.2708,0.48506 0.1323,0.71956 0.26273,0.15284 0.34731,0.28151 0.18797,0.28594 -0.15935,0.004 -0.50903,-0.23428 -0.77706,-0.53045 z m 1.8154,0.11943 c -0.12947,-0.3374 -0.2044,-0.35029 -0.38452,-0.0661 -0.15258,0.24071 -0.22499,0.25272 -0.22776,0.0378 -0.007,-0.57648 0.49446,-0.63343 0.78573,-0.0892 0.15795,0.29511 0.21971,0.53657 0.13727,0.53657 -0.0824,0 -0.22227,-0.18857 -0.31072,-0.41906 z m 3.93317,-0.24239 c 0.005,-0.43657 0.0647,-0.58313 0.13177,-0.3257 0.0671,0.25743 0.0627,0.61462 -0.01,0.79375 -0.0725,0.17913 -0.12736,-0.0315 -0.12197,-0.46805 z m 1.20658,0 c -0.0695,-0.36381 -0.0239,-0.66146 0.10144,-0.66146 0.12534,0 0.2279,0.29765 0.2279,0.66146 0,0.3638 -0.0456,0.66145 -0.10145,0.66145 -0.0558,0 -0.15835,-0.29765 -0.22789,-0.66145 z m 2.90902,0.48623 c 0.18191,-0.0734 0.47956,-0.0734 0.66146,0 0.1819,0.0734 0.0331,0.13345 -0.33073,0.13345 -0.3638,0 -0.51263,-0.0601 -0.33073,-0.13345 z m 1.24014,-0.11627 c -0.13161,-0.21296 -0.0857,-0.25042 0.13763,-0.11236 0.19421,0.12002 0.44229,0.0538 0.59019,-0.15756 0.2132,-0.30469 0.23824,-0.3021 0.15232,0.0157 -0.13728,0.50778 -0.63464,0.65143 -0.88014,0.2542 z m 2.64583,0 c -0.13161,-0.21296 -0.0857,-0.25042 0.13763,-0.11236 0.19421,0.12002 0.4423,0.0538 0.59019,-0.15756 0.2132,-0.30469 0.23824,-0.3021 0.15232,0.0157 -0.13728,0.50778 -0.63463,0.65143 -0.88014,0.2542 z m 1.70418,0.0524 c 0.20055,-0.12702 0.29508,-0.34348 0.21008,-0.48102 -0.085,-0.13754 0.0124,-0.25007 0.21639,-0.25007 0.27772,0 0.3057,0.12192 0.11135,0.48508 -0.14278,0.26678 -0.40424,0.48324 -0.58102,0.48101 -0.22023,-0.003 -0.20662,-0.0768 0.0432,-0.235 z m 0.96017,-0.0225 c -0.0927,-0.14998 0.0135,-0.19434 0.24896,-0.10398 0.45837,0.17589 0.54224,0.36553 0.16165,0.36553 -0.13693,0 -0.32171,-0.1177 -0.41061,-0.26155 z m 2.65446,0.014 c -0.10235,-0.1656 -0.006,-0.21266 0.24034,-0.11795 0.30894,0.11854 0.41061,-0.0203 0.41061,-0.56052 0,-0.57464 -0.0925,-0.68286 -0.46302,-0.5418 -0.37125,0.14134 -0.39747,0.11024 -0.13229,-0.1569 0.44968,-0.453 0.93293,0.0479 0.81615,0.8459 -0.0968,0.66146 -0.60131,0.96891 -0.87179,0.53126 z m 2.48936,-0.20662 c -0.3052,-0.40261 -0.30327,-0.42332 0.0132,-0.14111 0.5317,0.47414 0.73999,0.41189 0.88531,-0.26458 0.11829,-0.55065 0.12463,-0.54725 0.0845,0.0454 -0.0546,0.80657 -0.51641,0.97584 -0.98305,0.36027 z m -3.15727,-0.53798 c 0.003,-0.52953 0.0683,-0.6261 0.2401,-0.35472 0.12983,0.20508 0.1748,0.5325 0.0999,0.7276 -0.2147,0.5595 -0.34444,0.41723 -0.34004,-0.37288 z m -1.32697,0.0505 c 0,-0.22687 0.12101,-0.33771 0.2689,-0.2463 0.14789,0.0914 0.2004,0.27702 0.11668,0.41249 -0.22681,0.36698 -0.38558,0.29855 -0.38558,-0.16619 z m 3.70417,0.16352 c 0,-0.13693 0.1177,-0.32171 0.26155,-0.41062 0.14998,-0.0927 0.19434,0.0135 0.10399,0.24897 -0.1759,0.45837 -0.36554,0.54223 -0.36554,0.16165 z m -16.21014,-0.31303 c 0.17947,-0.18082 0.39297,-0.26212 0.47443,-0.18065 0.0815,0.0815 -0.0654,0.2294 -0.32632,0.32876 -0.37708,0.14359 -0.40747,0.1132 -0.14811,-0.14811 z m 9.06639,-0.0839 c 0,-0.20969 0.10796,-0.44798 0.23991,-0.52953 0.13195,-0.0815 0.17759,0.09 0.10143,0.38126 -0.16156,0.6178 -0.34134,0.6959 -0.34134,0.14827 z m -0.92604,-0.41249 c -0.50492,-0.21697 -0.50189,-0.22824 0.0661,-0.24598 0.32742,-0.0102 0.59531,0.10046 0.59531,0.24598 0,0.14552 -0.0298,0.25622 -0.0661,0.24599 -0.0364,-0.0102 -0.30427,-0.12092 -0.59531,-0.24599 z m 2.44298,-0.0328 c 0.17948,-0.18082 0.39297,-0.26211 0.47443,-0.18065 0.0815,0.0815 -0.0654,0.22941 -0.32632,0.32877 -0.37708,0.14358 -0.40747,0.11319 -0.14811,-0.14812 z m 1.32292,0 c 0.17948,-0.18082 0.39297,-0.26211 0.47443,-0.18065 0.0815,0.0815 -0.0654,0.22941 -0.32632,0.32877 -0.37708,0.14358 -0.40747,0.11319 -0.14811,-0.14812 z m 5.29166,0 c 0.17948,-0.18082 0.39297,-0.26211 0.47444,-0.18065 0.0815,0.0815 -0.0654,0.22941 -0.32632,0.32877 -0.37709,0.14358 -0.40748,0.11319 -0.14812,-0.14812 z m -20.80483,-5.01198 c -7.76709,-1.55304 -14.612684,-6.71515 -18.107109,-13.65415 -6.324241,-12.55826 -1.640744,-27.58688 10.697459,-34.3265 3.5646,-1.947136 8.48468,-3.161926 12.19868,-3.011916 1.86271,0.0752 1.93115,0.10144 1.93115,0.73946 0,0.65299 -0.0355,0.66358 -2.77812,0.82782 -3.74787,0.22444 -6.75109,1.014396 -9.92188,2.609806 -4.81135,2.42087 -8.356445,5.96611 -10.717166,10.71759 -2.469807,4.97103 -3.20433,10.24622 -2.142131,15.38433 1.046352,5.06146 2.981869,8.60506 6.773178,12.40053 2.113919,2.11624 3.152389,2.92549 5.160079,4.02109 3.43027,1.87191 6.45372,2.7236 10.45104,2.94399 3.1636,0.17443 3.175,0.17743 3.175,0.83651 0,0.66094 -0.002,0.66149 -2.77812,0.70282 -1.52797,0.0228 -3.3019,-0.0634 -3.94206,-0.19138 z m 10.59352,-0.86387 c -0.44248,-0.53315 0.14642,-1.09914 1.6639,-1.59916 1.61039,-0.53065 1.90625,-0.53527 2.09907,-0.0328 0.28301,0.73751 -0.13755,1.16525 -1.54922,1.57563 -1.71174,0.49762 -1.84469,0.501 -2.21375,0.0563 z m -10.55634,-2.70934 c -6.59687,-1.44536 -12.424008,-6.08079 -15.341692,-12.20417 -4.101291,-8.60741 -2.194225,-19.07699 4.651212,-25.53463 3.02746,-2.85596 5.379,-4.23702 9.22234,-5.41628 2.08309,-0.63917 2.73731,-0.71427 6.16677,-0.70796 3.39019,0.006 4.10752,0.0894 6.16677,0.71502 3.93073,1.19417 6.96272,3.01061 9.6618,5.78831 3.89003,4.00334 6.01755,8.84245 6.32133,14.37805 0.60593,11.0416 -6.84637,20.72769 -17.70489,23.01185 -2.25523,0.47441 -6.91074,0.45903 -9.14364,-0.0302 z m 7.33508,-1.50229 c -0.0188,-0.66166 -0.66756,-1.39111 -1.31354,-1.4768 -1.1063,-0.14674 -1.42071,-0.67477 -1.37759,-2.3136 0.0448,-1.70408 0.29489,-2.12336 1.41282,-2.3689 1.05814,-0.2324 1.54937,-1.24894 0.93279,-1.93025 -0.70129,-0.77492 -0.52863,-1.65193 0.54089,-2.74721 1.07392,-1.0998 1.97619,-1.28361 2.77081,-0.56449 0.39466,0.35716 0.60787,0.38284 1.14532,0.13797 0.36321,-0.16549 0.66038,-0.51508 0.66038,-0.77686 0,-0.26178 0.18535,-0.74059 0.41188,-1.06401 0.35276,-0.50363 0.65523,-0.58804 2.10736,-0.58804 1.78685,0 2.24326,0.31082 2.24326,1.52764 0,0.77301 1.21021,1.22715 1.92884,0.7238 0.89265,-0.62524 1.6888,-0.47615 2.79523,0.52344 l 1.02142,0.9228 0.81107,-1.78269 c 1.04592,-2.29889 1.64552,-4.38321 1.64552,-5.72009 0,-0.82696 -0.0705,-0.99267 -0.3175,-0.74573 -0.5497,0.5497 -1.84943,0.36834 -2.61472,-0.36485 -0.5766,-0.55242 -0.80607,-0.62801 -1.2051,-0.39699 -0.27109,0.15695 -0.82031,0.40153 -1.22049,0.54351 -0.60968,0.21631 -0.7276,0.41125 -0.7276,1.20277 0,0.65015 -0.20245,1.14706 -0.64944,1.59404 -0.55444,0.55445 -0.8975,0.64944 -2.34556,0.64944 -2.21802,0 -3.09042,-0.60479 -3.09042,-2.14242 0,-0.90177 -0.10013,-1.08121 -0.7276,-1.30383 -0.40019,-0.14198 -0.9425,-0.38225 -1.20514,-0.53392 -0.37644,-0.21739 -0.64681,-0.13334 -1.27707,0.39699 -1.22397,1.02989 -2.13371,0.89295 -3.68069,-0.55407 -1.11363,-1.04167 -1.31158,-1.37413 -1.31158,-2.20284 0,-0.69233 0.18746,-1.15212 0.64499,-1.58195 l 0.645,-0.60594 -0.48005,-1.22612 c -0.45157,-1.15339 -0.5443,-1.23091 -1.56351,-1.3071 -1.5712,-0.11745 -2.15685,-0.9593 -2.15685,-3.10038 0,-2.07831 0.4975,-2.7915 2.10174,-3.01293 1.05483,-0.14559 1.15858,-0.23624 1.59808,-1.39618 l 0.47001,-1.24048 -0.62971,-0.59158 c -1.04785,-0.9844 -0.86967,-2.27547 0.49478,-3.58525 0.61846,-0.59369 1.35617,-1.20181 1.63935,-1.3514 0.87505,-0.46222 -2.72237,-0.69825 -5.40292,-0.35448 -3.31464,0.42508 -7.68279,2.17725 -9.4422,3.78748 l -0.57191,0.52342 3.38636,5.06909 c 2.76305,4.13606 3.77465,5.41931 5.49592,6.97178 l 2.10957,1.90268 0.19028,3.1244 c 0.17428,2.86153 0.28046,3.32968 1.26202,5.56426 l 1.07173,2.43985 -1.20481,3.38098 c -0.66264,1.85954 -1.56954,4.37718 -2.01532,5.59476 -0.44578,1.21757 -0.74554,2.3189 -0.66612,2.44739 0.23937,0.38732 5.67111,0.29413 5.66002,-0.0971 z m -5.5087,-5.73387 1.97773,-5.53543 -1.00457,-2.23111 c -0.91033,-2.02178 -1.02083,-2.5156 -1.17777,-5.2635 l -0.1732,-3.03241 -1.85012,-1.57033 c -1.51979,-1.28996 -2.46445,-2.49149 -5.29094,-6.7297 -1.89246,-2.83766 -3.473,-5.19819 -3.51233,-5.24563 -0.10822,-0.13056 -2.30153,2.29057 -2.847656,3.14344 -0.43441,0.67841 -0.441647,0.80577 -0.07738,1.36171 0.527601,0.80522 0.181567,1.34236 -0.790544,1.22714 -0.709528,-0.0841 -0.802156,0.0209 -1.46163,1.65756 -0.9758,2.42164 -1.174404,3.41203 -0.684218,3.41203 0.212025,0 0.517124,0.15859 0.677997,0.35243 0.368317,0.4438 -0.121243,1.14935 -0.889161,1.28147 -0.448483,0.0772 -0.54194,0.33269 -0.612937,1.67596 -0.04607,0.87171 -0.01089,2.07838 0.07817,2.68149 0.133568,0.90444 0.248579,1.07391 0.656428,0.96726 0.70908,-0.18543 1.209183,0.80087 0.676287,1.33377 -0.215394,0.21539 -0.529983,0.43774 -0.699086,0.49411 -0.350761,0.11692 -0.0379,1.2562 0.986023,3.5906 0.548249,1.24994 0.680769,1.37981 1.259661,1.23452 0.891488,-0.22375 1.378008,0.60001 0.758604,1.28445 -0.524032,0.57904 -0.327495,0.97003 1.621632,3.22608 1.22239,1.41487 1.3092,1.46586 1.77609,1.04333 0.78303,-0.70863 1.39703,-0.29567 1.19125,0.80122 -0.16988,0.90557 -0.15846,0.91839 1.88378,2.11387 1.13008,0.66152 2.15716,1.20277 2.2824,1.20277 0.12524,0 0.42643,-0.24541 0.66931,-0.54536 0.60077,-0.74191 1.36301,-0.43195 1.36301,0.55427 0,0.67899 0.16839,0.83772 1.08074,1.01873 0.0851,0.0169 1.04468,-2.46025 2.13243,-5.50474 z m 9.28737,5.03233 c 0.10858,-0.10052 -0.0403,-0.64893 -0.33073,-1.21869 -0.68556,-1.3447 -0.66734,-2.38797 0.0672,-3.84454 0.65969,-1.3082 2.33755,-2.37117 3.74284,-2.37117 1.21795,0 2.98286,0.98688 3.62603,2.02755 l 0.5758,0.93167 0.78444,-0.78444 c 0.65533,-0.65533 0.73735,-0.87244 0.49833,-1.31904 -0.22862,-0.42718 -0.17506,-0.67577 0.26658,-1.23722 0.53126,-0.67539 0.53443,-0.7228 0.0817,-1.22301 -0.46811,-0.51725 -0.47436,-0.51717 -1.03859,0.0129 -0.71464,0.67137 -0.8975,0.66673 -2.44469,-0.062 -1.44599,-0.68112 -1.65105,-0.89398 -1.65667,-1.7198 -0.003,-0.47771 -0.1536,-0.59531 -0.76111,-0.59531 -0.63889,0 -0.74116,0.0929 -0.6552,0.59531 0.14362,0.8393 -0.10178,1.0749 -1.84885,1.77507 l -1.54132,0.6177 -0.5633,-0.5633 -0.5633,-0.56329 -0.60884,0.57198 -0.60885,0.57198 0.55379,0.58947 0.55378,0.58948 -0.58775,1.61197 c -0.4196,1.1508 -0.729,1.62143 -1.08147,1.64504 -0.27154,0.0182 -0.64254,0.048 -0.82444,0.0661 -0.1819,0.0182 -0.36762,0.35242 -0.41272,0.74274 -0.0727,0.62902 0.0168,0.71921 0.78784,0.79375 0.74192,0.0717 0.92905,0.23973 1.27261,1.14257 0.62931,1.65375 0.75445,1.77074 1.68475,1.57496 0.45909,-0.0966 0.92354,-0.2579 1.03212,-0.35842 z m 3.37446,-1.37419 c 2.02718,-1.20924 2.6423,-1.71524 2.64403,-2.175 0.003,-0.77816 -0.48665,-1.46931 -1.3611,-1.92151 -2.38171,-1.23163 -4.84682,1.50399 -3.41614,3.79099 0.63079,1.00834 0.89224,1.04578 2.13321,0.30552 z m 2.86267,-15.25448 c 0.079,-0.55622 -0.0122,-0.59531 -1.38906,-0.59531 -1.25257,0 -1.47361,0.0728 -1.47361,0.48507 0,0.73603 0.26832,0.86935 1.57765,0.7839 1.01485,-0.0662 1.21355,-0.17039 1.28502,-0.67366 z m -8.72262,-2.53255 c 0.22243,-0.26801 0.0544,-0.58001 -0.71884,-1.3351 -0.89926,-0.87811 -1.04704,-0.93966 -1.35759,-0.56546 -0.29808,0.35915 -0.22017,0.5523 0.53856,1.3351 0.98733,1.01867 1.12096,1.06781 1.53787,0.56546 z m 11.48089,-0.53164 c 1.65755,-0.81096 3.4426,-2.46368 4.14981,-3.84216 0.41656,-0.81197 0.43063,-1.05062 0.12232,-2.07506 -0.53353,-1.77279 -0.6618,-1.82216 -1.13125,-0.43543 -2.22196,6.56346 -11.19122,7.16068 -14.231,0.94757 -1.51519,-3.09692 -0.70923,-7.08656 1.84918,-9.15374 1.53072,-1.23681 2.08023,-1.48649 4.08676,-1.85681 l 1.74759,-0.32254 -1.29069,-0.7564 c -1.21633,-0.71282 -1.36016,-0.73802 -2.49624,-0.43741 -2.31646,0.61294 -4.52302,2.55119 -5.75242,5.05292 -0.93238,1.89731 -1.15805,5.10508 -0.49878,7.08993 0.9454,2.84634 3.47981,5.37911 6.30338,6.29931 0.70256,0.22896 1.97419,0.33736 3.39387,0.28933 1.83489,-0.0621 2.55367,-0.21544 3.74747,-0.79951 z m 4.4849,0.17042 c 0.71628,-0.68624 0.93847,-1.3857 0.56031,-1.76386 -0.1,-0.1 -0.63273,0.25858 -1.18391,0.79678 -0.76782,0.74976 -0.93427,1.06033 -0.71187,1.3283 0.39617,0.47736 0.48537,0.45323 1.33547,-0.36122 z m -5.9317,-3.49218 c 2.40045,-1.22461 3.75635,-3.99728 3.21946,-6.58346 -1.03641,-4.99236 -7.17965,-6.65882 -10.52046,-2.85385 -1.03422,1.17791 -1.7322,3.4512 -1.48264,4.82887 0.76284,4.2111 5.10102,6.48718 8.78364,4.60844 z m -13.96372,-5.47255 c 0,-1.37685 -0.0391,-1.46806 -0.59532,-1.38906 -0.43347,0.0616 -0.61891,0.29103 -0.68211,0.84412 -0.13803,1.20781 0.16453,2.01855 0.7533,2.01855 0.45971,0 0.52413,-0.18112 0.52413,-1.47361 z m 3.26578,-8.00888 c 0.8894,-0.91083 0.94798,-1.05229 0.56683,-1.36862 -0.36645,-0.30413 -0.55218,-0.22571 -1.34622,0.56833 -0.62483,0.62483 -0.86589,1.06507 -0.74941,1.36862 0.2442,0.63637 0.41412,0.5732 1.5288,-0.56833 z m 3.08422,-2.16323 c 0.35277,-0.23159 0.35277,-0.28948 0,-0.52107 -0.21828,-0.14329 -0.53597,-0.26235 -0.70597,-0.26458 -0.17,-0.002 -0.52718,-0.0827 -0.79375,-0.17871 -0.39024,-0.14063 -0.35969,-0.0375 0.15677,0.52917 0.7145,0.784 0.77951,0.80506 1.34295,0.43519 z m 6.5106,40.33137 c -0.0883,-0.23018 -0.1606,-0.46445 -0.1606,-0.5206 0,-0.0561 0.639,-0.58453 1.42,-1.17419 0.93249,-0.70404 1.57314,-1.01334 1.86607,-0.90094 0.73822,0.28329 0.36695,1.20905 -0.85925,2.14253 -1.24933,0.9511 -2.0163,1.10448 -2.26622,0.4532 z m 5.75715,-5.26681 c -0.2466,-0.64262 1.54518,-2.91363 2.29879,-2.91363 0.96125,0 0.91246,0.67554 -0.14923,2.06599 -0.95972,1.25691 -1.85677,1.61064 -2.14956,0.84764 z m 3.98038,-6.58425 c -0.0849,-0.22134 0.0643,-1.09335 0.33154,-1.93779 0.4215,-1.33172 0.57368,-1.53534 1.14741,-1.53534 0.57536,0 0.65659,0.11004 0.62402,0.84541 -0.0803,1.81329 -1.65867,3.78552 -2.10297,2.62772 z m 1.6665,-7.47482 c -0.10315,-0.10315 -0.18755,-0.92703 -0.18755,-1.83085 0,-1.8446 0.45306,-2.5848 1.20177,-1.96343 0.3086,0.25612 0.38918,0.76363 0.33072,2.08292 -0.0675,1.52405 -0.14547,1.75406 -0.61733,1.8216 -0.29703,0.0425 -0.62446,-0.007 -0.72761,-0.11024 z m -0.79816,-7.70613 c -0.39262,-0.69144 -0.99974,-3.06454 -0.87031,-3.40183 0.0912,-0.23761 0.39802,-0.37051 0.74086,-0.32089 0.78817,0.11408 1.79141,2.89509 1.27073,3.52248 -0.35182,0.42391 -0.95426,0.52961 -1.14128,0.20024 z m -4.01714,-8.37988 c -0.83988,-1.21946 -0.95053,-1.52737 -0.67024,-1.86509 0.55203,-0.66517 0.96917,-0.47319 1.98822,0.91503 1.04083,1.41789 1.12163,2.20486 0.23939,2.33149 -0.41226,0.0592 -0.80531,-0.28946 -1.55737,-1.38143 z m -5.3463,-5.25563 c -1.27654,-0.97757 -1.53546,-1.43039 -1.11062,-1.9423 0.44406,-0.53505 0.76322,-0.44924 2.17148,0.58381 0.95367,0.69958 1.25252,1.0798 1.19063,1.51479 -0.12386,0.87042 -0.98923,0.81035 -2.25149,-0.1563 z m -7.04109,-3.53796 c -1.14488,-0.35522 -1.26423,-0.46574 -1.19063,-1.102586 0.0721,-0.62389 0.18485,-0.69969 0.95092,-0.6394 1.34391,0.10577 2.83506,0.90586 2.83506,1.521176 0,0.6775 -0.88163,0.75251 -2.59535,0.22081 z"
       id="path265" />
    <rect
       style="fill:none;stroke-width:0.264583"
       id="rect165"
       width="56.955276"
       height="56.073616"
       x="87.262596"
       y="88.811592" />
    <rect
       style="fill:none;stroke-width:0.264583"
       id="rect387"
       width="51.312649"
       height="52.37064"
       x="89.946053"
       y="97.533264" />
  </g>
</svg>
